<svg id="Layer_1" data-name="Layer 1" xmlns="http://www.w3.org/2000/svg" viewBox="0 0 729 223.18"><defs><style>.cls-1{fill:#104246;}.cls-2{fill:#05adc4;}.cls-3{fill:#c4d660;}.cls-4{fill:#00aec6;}.cls-5{fill:#00acc4;}.cls-6{fill:#c6d762;}.cls-7{fill:#0e4147;}.cls-8{fill:#104247;}</style></defs><title>Rick_and_Morty_logo</title><path class="cls-1" d="M129.81,414.39c.58-2.87-.58-5.92-1.33-9.2-1-4.6-2-9.52-1-14.42.59-2.84.42-5.4-1.95-7.63-2-1.86-1.73-4.35-.79-6.73.64-1.6,1.42-3.15,2-4.78.66-1.85,1.13-3.63-1.18-5-1.57-.9-1.46-2.63-.95-4.15a13.71,13.71,0,0,0,.35-7.88c-.93-3.73.38-4.91,4.12-4.2,1.07.21,1.6-.34,2.28-.85a4.6,4.6,0,0,1,5.15-.48c1.8.95,1.5,2.71,1.29,4.35a4.58,4.58,0,0,0,.08,2.84c2.05,3.81,1.31,7.62.17,11.47a14.24,14.24,0,0,0-.71,6.25,5.66,5.66,0,0,0,2.54,4.27c3.19,2.09,3.81,4.85,1.53,7.83-2.46,3.22-3.38,6.2-1,10,1.67,2.67.76,5.71-.46,8.33A25,25,0,0,0,137.6,419a11.92,11.92,0,0,1-.47,4c-.29,1.36-.9,2.61-2.48,2.84a3.62,3.62,0,0,1-3.61-1.9C129.13,421.11,129.75,418,129.81,414.39Zm2-.09c.19,2.61-.73,5,.24,7.37.37.91.86,1.9,1.94,1.89,1.31,0,1.32-1.22,1.41-2.14a17.31,17.31,0,0,0,.1-3.45,23.69,23.69,0,0,1,2.18-13.17c1.76-3.54,2-7.16-.24-10.69a5.08,5.08,0,0,1,.12-5.48c.6-1.09,1.32-2.12,2-3.17,1.73-2.67,1.56-4-1.1-5.74a6.83,6.83,0,0,1-3-5.3,16.67,16.67,0,0,1,.7-7.12c1.13-3.57,1.7-7.1-.19-10.62a4.87,4.87,0,0,1-.09-3.39c.15-.82.48-1.86-.42-2.38a2.45,2.45,0,0,0-3,.31c-1.07,1-2.25,1.63-3.66,1.13-2.58-.93-2.46.85-2,2.16,1.1,2.83.55,5.49-.28,8.15-.44,1.39-.38,2.39,1,3.12,1.27.65,1.46,1.85,1.53,3.19.13,2.86-1.48,5.12-2.41,7.62-.66,1.76-1.39,3.72.18,5.14,3.31,3,3.08,6.67,2.36,10.38-.83,4.26.3,8.45,1,12.39C131,407.83,132.2,411,131.83,414.3Z" transform="translate(-10.5 -263.41)"/><path class="cls-1" d="M132.36,320.13c-.56,1.59-.27,2.19,1.75,2.29,2.75.14,3.37,2.57,2.93,4.71a105.75,105.75,0,0,0-1.75,10.49,4.78,4.78,0,0,1-3.74,4.31,4.83,4.83,0,0,1-5.41-1.71,6.07,6.07,0,0,0-1.44-1.38c-4.24-2.6-5.18-4.95-3.1-9.2,1.36-2.79,2.72-5.22,1.13-8.55-.92-1.94.58-3.88,2.35-5.12a5,5,0,0,1,5.46-.45C132.35,316.49,132.34,318.32,132.36,320.13Zm-2.1.55c-.18-1,.68-2.51-.8-3.42a2.88,2.88,0,0,0-3.26.33c-1.12.82-2.28,2.11-1.54,3.39,2,3.45.38,6.18-1.14,9.13-1.81,3.52-1.24,5.06,2.12,7a6.17,6.17,0,0,1,1.7,1.48c.9,1.15,2,1.89,3.45,1.53a3.37,3.37,0,0,0,2.66-3.08,55.63,55.63,0,0,1,1.67-10.17c.31-1.15,0-2.87-1.79-2.49C130,325.14,130.1,323.14,130.26,320.68Z" transform="translate(-10.5 -263.41)"/><path class="cls-2" d="M131.83,414.3c.37-3.26-.85-6.47-1.48-9.8-.74-3.94-1.87-8.13-1-12.39.72-3.71.95-7.4-2.36-10.38-1.57-1.42-.84-3.38-.18-5.14.93-2.5,2.54-4.76,2.41-7.62-.07-1.34-.26-2.54-1.53-3.19-1.42-.73-1.48-1.73-1-3.12.83-2.66,1.38-5.32.28-8.15-.51-1.31-.63-3.09,2-2.16,1.41.5,2.59-.15,3.66-1.13a2.45,2.45,0,0,1,3-.31c.9.52.57,1.56.42,2.38a4.87,4.87,0,0,0,.09,3.39c1.89,3.52,1.32,7.05.19,10.62a16.67,16.67,0,0,0-.7,7.12,6.83,6.83,0,0,0,3,5.3c2.66,1.75,2.83,3.07,1.1,5.74-.68,1.05-1.4,2.08-2,3.17a5.08,5.08,0,0,0-.12,5.48c2.25,3.53,2,7.15.24,10.69A23.69,23.69,0,0,0,135.52,418a17.31,17.31,0,0,1-.1,3.45c-.09.92-.1,2.13-1.41,2.14-1.08,0-1.57-1-1.94-1.89C131.1,419.32,132,416.91,131.83,414.3Z" transform="translate(-10.5 -263.41)"/><path class="cls-3" d="M255.86,410.84c.24.77.48,1.54.73,2.31l.15,1.12c0,.35.08.69.11,1l.06,2.38a1.44,1.44,0,0,0,.38,1.74l.21,2.3a.88.88,0,0,0,.37,1.16c.06.58.13,1.15.19,1.73a.9.9,0,0,0,.4,1.16c1.11,2.7.93,5.88,3.09,8.18.15.72.31,1.43.46,2.15.77,2.87,1.87,5.68,1.86,8.72a5.46,5.46,0,0,0,0,2.92c.09,1.54-.88,2.76-1.27,4.16-2.4,2-5.49,3.28-7.06,6.24l-3,1.22h-3.38a5.71,5.71,0,0,0-2.94-1.23l-2.73-3c-.13-.92-.25-1.85-.37-2.77-.43-1.72.09-3.6-.94-5.21-.26-1.15-.53-2.3-.79-3.45a.9.9,0,0,0-.39-1.16l-.14-1.15c.1-.56,0-1-.64-1.12-.41-2.17-2.38-3.35-3.29-5.2a2.35,2.35,0,0,0-1.4-2.43c-.15-.71-.31-1.43-.47-2.14.22-.68,0-1.15-.7-1.32-.13-.53-.25-1.06-.37-1.6.24-1.18-.76-1.45-1.44-2a1.07,1.07,0,0,0-.11-.46c0-1.1-.91-1.64-1.57-2.31a12.88,12.88,0,0,1-3.61-7.36,26.76,26.76,0,0,0-2.7-8.13,5.93,5.93,0,0,0-4-3.23c-1.33,5.76-1.68,11.54-3.76,16.94-1.51,3.9-3,7.82-4.44,11.73l-2.48,3.4c-5.68,1.83-8.08,1.5-10.43-2.09s-3.62-7.6-2.72-12c.57-2.84,1.55-5.54,2.34-8.3.47-1.62,1.44-3.31.29-5.52-2.27,2.9-4.88,5.13-8.3,5.13-4,0-7.24,2.05-10.82,3-4.45,1.19-6.25,3.89-7.76,7.49a7.71,7.71,0,0,1-.81,1.53c-2.12,2.9-4.83,5.38-8.54,4.79s-5.75-3.31-6.62-7.06c-1.26-5.41-3.21-10.46-9.33-12.27a3,3,0,0,1-1-.6c-2.33-1.79-3-1.56-4,1.19a8.1,8.1,0,0,0-.32,4.53c1,5.05.18,9.52-3.73,13.11-1.35,1.24-1.13,2.24.13,3.34a13.24,13.24,0,0,0,2.34,1.56c4,2.21,7.21,5.37,7.9,10a12.61,12.61,0,0,0,3.62,6.92c7.28,8.12,10.08,17.87,9.74,28.57-.12,3.87-5.75,7.45-9.23,5.7-5.68-2.86-9.05-8.69-14.39-12.11-.44-.29-.67-.92-1-1.4-1.44-2.14-2.76-4.37-4.34-6.41a20,20,0,0,1-3.77-8.6,4.54,4.54,0,0,0-2.45-3.53,19.82,19.82,0,0,1-8.72-9.6,3.74,3.74,0,0,0-2.19-2.13,16.12,16.12,0,0,1-10-10.39c-.12-1.4-.71-1.44-1.62-.57-6.67-.1-9.49-1.53-10.87-6.66-1-3.59-2.85-5.54-6.34-6.21-.44-1-1-1.43-1.83-.35-4.12,1-7.6.19-10-3.54-.94-1.45-1.76-3-2.65-4.45-1-1.71-4.59-2.71-6.66-1.88-1.2.48-2.15,3.91-1.46,5.65A15.21,15.21,0,0,1,64,425.86a4.69,4.69,0,0,0,.54,5.58c3.13,3.86,3.52,8.21,2,12.78a7,7,0,0,0,.56,6.07,9.25,9.25,0,0,1-1,11.28,9.25,9.25,0,0,0-2.33,7.37,14,14,0,0,1,0,3.17,8.23,8.23,0,0,1-4.8,6.74,7.27,7.27,0,0,1-7.91-.77c-3.23-2.54-5.29-5.77-5.34-10.07a7.42,7.42,0,0,0-2.27-5.68,8.11,8.11,0,0,1-2.46-8.12,8.53,8.53,0,0,0-.73-6.46c-2.11-3.37-3.12-7.21-4.94-10.71a14.57,14.57,0,0,1-.54-12.54,7.58,7.58,0,0,0-1.22-8.71,10,10,0,0,1-1.53-10.58,14.5,14.5,0,0,0,.32-9.29c-1.33-5.05-4.21-9.77-3.37-15.32.14-.94-.76-1.5-1.27-2.18C25.45,375.34,24,372,24.45,368a9.17,9.17,0,0,0-.44-4c-1.55-4.78-2.67-9.6-.92-14.64a4.92,4.92,0,0,0-1.29-5.78C15.16,337.72,13.14,330.48,16,322a4.8,4.8,0,0,0-1.39-5.7c-4.19-3.68-4.52-8.55-3.73-13.53.65-4.13,3.81-6.69,8-7,1.74-.13,3.19-.62,3.95-2.34a2,2,0,0,0,1.69-1.17c1.29.23,1.68-.9,2.38-1.57.62-.09,1.27-.12,1.67-.72a5.84,5.84,0,0,0,2.95-1.12l1.06-.12a8.43,8.43,0,0,0,3.64,0l1.07.12c.38.74,1.08.63,1.73.66,1.1.67,2.17,1.13,2.93-.44a4,4,0,0,0,3.32-2c.56.09,1,0,1-.69l8.28-6.15a19.86,19.86,0,0,1,5.79-1.35c.83.13,1.7.45,2.3-.5l3.5,0a.82.82,0,0,0,1.15.47l4.11.67,1.58.39c.13.73.6.94,1.27.84,1.77,1.84,4.19,2.48,6.43,3.4,2.54,1,4.51,3.15,7.29,3.69.82,1.53,1.85,1.32,3,.35l2.86,0a2,2,0,0,0,1.85.54l3.47,2.4a1.81,1.81,0,0,0,1,1.79c.18,3.06,2.32,2.18,4.09,2,2.1-.18,3.53,1.53,5.43,1.93l4.41,4.66.75,2.9a.94.94,0,0,0,.39,1.16c0,2,0,4,0,6,0,1.57-.41,3.27,1.14,4.44.74,1.23,1.48,2.26,2.21,0a2.49,2.49,0,0,0,.71-1.71c.63-.76,1.82-.91,2.15-2a12.75,12.75,0,0,1,11.16-1.6,2.38,2.38,0,0,0,.52.15c1.85,1.64,2.95,3.84,4.39,5.8a3.83,3.83,0,0,0,2.59,3.36,1.7,1.7,0,0,0,1.42,1.84c.16.71.31,1.43.47,2.14.44,4-1.49,7.75-1.19,11.73,0,.55,0,1.09-.08,1.64-1.19.91-.16,2.34-.79,3.38l-.57,1.15a1.09,1.09,0,0,0-1,1.28c-.41.17-.94.4-.72.87.11.25.77.25,1.19.37a20.76,20.76,0,0,1,4.18,5.7c0,1.14,0,2.29.08,3.43-.87.51-.85,1.08-.13,1.71l.75,2.89a.94.94,0,0,0,.38,1.17l0,4c-.27.55-.64,1.08-.41,1.75-.05,2.75-1.86,5.22-1.27,8.07a1.32,1.32,0,0,0,1.06,1.55l2.41,2.46,1.92,4.37c.27-1.95.48-3.43.69-4.92l.09-1.2a9.27,9.27,0,0,0,1.51-3.92c.71-.11.86-.62.87-1.23a1.4,1.4,0,0,0,.36-1.74l0-2.39c.66-3.22,3-5.29,5.17-7.49a4,4,0,0,0,3.17-2l1.07-.28c1.68.15,2.43-.63,2.32-2.29,2.13-3.66,5.49-5.84,9.18-7.63,1.28-.7,2.95,0,4.11-1.14l1.64-.08a2.57,2.57,0,0,0,1.91,0l1,.09,1.66.28,1.84,1c.68,1.72,1.77,1.26,2.91.56l3.45-.27H192l2.94.15,1.6.38c.35,1.18,1.81,1.1,2.34,2.07.76,1.25,1.51,1.63,2.24,0a2.35,2.35,0,0,0,.47-2.4l0-1c.35-.58.91-1.1.54-1.89,0-.33,0-.66,0-1,.35-.58.9-1.1.54-1.88l.09-1.64c.83-.41.75-1.1.54-1.82,0-.36,0-.72,0-1.09a5.92,5.92,0,0,0,0-5.74l-.06-1.66a2.35,2.35,0,0,0-.58-2.45l-.06-2.16a4,4,0,0,0,0-2.5l0-1,.18-1.3a18.14,18.14,0,0,1,4-5.18c1.45-.81,3.1-.42,4.64-.76.68.17,1.36.36,1.71-.53a1.06,1.06,0,0,0,1.12-.5,12.52,12.52,0,0,1,9.33.65l1.8,2c2.18,3.72,1.64,7.83,1.67,11.85a1,1,0,0,0-.4,1.17c-.41,2.5-1.68,4.84-1.47,7.47-.46.44-.38.83.12,1.18.06,1.15.13,2.3.19,3.45a.92.92,0,0,0,.37,1.17l1.23,3.49c0,.54.07,1.08.11,1.62l-.09,1.81c0,.63-.29,1.68.22,1.76,1.2.18,2-.79,2.54-1.76a.66.66,0,0,0,.08-.46,5,5,0,0,0,2.92-1.74l2.8-.31c.87.15,1.44-.12,1.52-1.08,2.41-2.46,5.64-4,7.65-6.91a1.43,1.43,0,0,0,1.29-1.44,23.72,23.72,0,0,0,6.27-4.26c.69.07,1.14-.18,1.24-.91,1.46,0,2.36-1.15,3.48-1.84l2.23-.29a1,1,0,0,0,1.16-.43c2.82.05,5.76-.49,8.2,1.57l.67.67c2.35,3.23,1.89,6.57.42,10-4.24,3.13-8.32,6.35-10.87,11.2-.83,1.59-2.72,2.62-4.13,3.9a1.58,1.58,0,0,0-1.86,1.4c-3.11.77-5.25,2.43-5.38,5.92a9.15,9.15,0,0,0-2,4.17c-1.21,2.19-3.28,3.54-5,5.21-.74,0-1,.67-1.4,1.05-2.46.28-4,2.51-6.26,3.1-.92.1-2.29-.14-1.17,1.53-.09,1,.58,1.28,1.37,1.45.52,3.8,3.38,6.15,5.58,8.9.16,2.11,1.68,2.39,3.34,2.47a9.69,9.69,0,0,0,3.52,1,16,16,0,0,1,5.65,7c.06.38.11.75.16,1.13s.07.69.11,1c-.17.87-.46,1.77.5,2.4a3.62,3.62,0,0,0,1.7,3.23A3.91,3.91,0,0,0,255.86,410.84ZM51.09,464.74c-.34,3.73.14,6.42,2.39,8.5,2.08,1.92,4.65,1.11,5.14-1.68a10.87,10.87,0,0,0,0-4c-.67-3.21.23-5.6,2.55-8,2.78-2.84,2.65-4.54.62-8-1.32-2.25-1.93-4.75-.84-7.17,1.88-4.17,1.36-7.81-1.61-11.22-2.38-2.74-2.5-5.59-.61-8.74a9.46,9.46,0,0,0,.71-9.38c-1-2-1.43-3.8-.29-5.93a4.73,4.73,0,0,0-.33-4.44,34.58,34.58,0,0,1-1.72-4c-.65-1.87-.65-3.77,1.29-4.83,1.79-1,2.51.9,3.41,1.84,2.69,2.85,5.52,5.13,9.83,3.86,1.32-.39,2.17.51,2.93,1.41a35.69,35.69,0,0,1,4.08,6.27c.83,1.57,2.47,3.75,3.81,2.84,3.57-2.44,5.85-.29,9,.8,2.58.9,4.1,2,5.25,4.17a38.07,38.07,0,0,1,2,5.1c.8,2.28,2.29,3.45,4.89,2.77,4.93-1.31,4.94-1.27,7.17,3.53.32.7.62,1.41.94,2.11,1.42,3.07,3.59,5.24,7.12,5.58a2.86,2.86,0,0,1,2.62,1.92,22.59,22.59,0,0,0,11.26,12.21,3.56,3.56,0,0,1,2.16,3.15c.24,6.53,6.83,16.52,12.61,19.27a7,7,0,0,1,3.09,2.91,31.52,31.52,0,0,0,2.21,3.37,2.32,2.32,0,0,0,2.81.92,2.48,2.48,0,0,0,1.56-2.81c-1-9.25-3.16-18-10.43-24.58a8.12,8.12,0,0,1-3-6c-.12-4.12-2.36-6.79-6.06-8.29a10.14,10.14,0,0,1-5.74-5.36c-.83-1.82-1.68-3.74-3.87-4.41-2.46-.76-3.69-2.48-4.29-4.95-.67-2.79-1.1-6-3.58-7.69-4.13-2.76-6.51-6.57-8.4-10.94a10.54,10.54,0,0,0-2.42-3.2c-1.76-1.73-3.9-3.31-6.41-2.51s-3.19-.28-4-2.17c-.71-1.66-1.83-4-3.76-3.32-3,1.08-3.14-1-4-2.47-1.65-2.88-2.76-6.34-7-6.37a1.13,1.13,0,0,1-1-.87c-.19-.72.4-1,.91-1.28,2-.93,3.8-2.05,4.6-4.15A5.58,5.58,0,0,1,94,374.7c3.76-.19,6.13-2.45,7.86-5.55a22.44,22.44,0,0,0,2.43-7.65c.13-.86.15-1.78,1-2.32,2.82-1.83,3.17-4.62,3-7.62-.09-1.37-.1-2.67,1-3.74,3.59-3.46,4.31-7.81,3.64-12.5a18.56,18.56,0,0,1,.49-7.7c.76-2.76,1-5.88-1.31-7.85-2.66-2.24-2.82-4.71-2.32-7.7a18.35,18.35,0,0,0,.09-4.32c-.38-5.62-4.8-8.54-10.12-6.78-3.14,1-3.27,1-3.74-2.4-.6-4.19-1.42-4.85-5.65-4.58-1.71.11-3.49.51-5-.65-4.27-3.21-9.28-5-14-7.46C65.73,283,59.9,283,54.57,287.14c-2.73,2.12-5.51,4.19-8.3,6.24a9,9,0,0,1-9,1.46c-2.78-1.09-5.27-.42-7.71,1A17.93,17.93,0,0,0,24,300.28c-.8,1-1.64,1.68-3.19,1.14-2.82-1-4.4,0-4.9,2.95-.61,3.56.12,6.79,3.14,9,2.61,1.95,3.14,4.46,2.59,7.41-.31,1.6-.71,3.18-1.09,4.77-1,4.16-.62,8,2.34,11.37,1.09,1.23,2.15,2.47,3.31,3.63,2.45,2.45,3.53,5.33,2.37,8.67-1.72,5-.68,9.69,1.08,14.38a5.24,5.24,0,0,1,.24,3.13c-.88,3.52.28,6.41,2.64,9,1,1.06,2.49,2.27,2.1,3.63-1.47,5.15,1.34,9.36,2.61,13.91,1.12,4,2.08,8.21.38,12.16-1.51,3.53-.78,6,1.41,9s4,6.67,1.09,10.56c-.69.93-.55,2.2-.73,3.34-.93,6.05,3,10.6,5.11,15.58,1,2.22,2,4.22,2,6.62a46.91,46.91,0,0,1-.18,4.89c-.17,1.7.23,3.12,1.74,4C50.53,460.75,51.63,462.72,51.09,464.74ZM209,373.56c.83.47.8,1,.6,1.42A19.57,19.57,0,0,0,208,382.8a13.16,13.16,0,0,1-1.06,5.34c-1.41,2.88-2.84,5.53-.25,8.46.2.22.16.75.1,1.11-1,6.46-1.67,13-3.63,19.22-1.32,4.24-3.3,8.48-.38,13,.65,1,.71,2.45,2.21,2.63,1.65.21,2.31-1,2.92-2.27a85.14,85.14,0,0,0,7.66-25.52c.34-2.59.39-4.69,4.13-6.11,3.28-1.24,4-1.6,4.85,1.66a1.32,1.32,0,0,0,.51.68c4.44,3.26,5.85,8.09,6.81,13.15.36,1.9.71,3.91,2.31,5.16,3.3,2.58,4.87,6.08,5.92,10a14.75,14.75,0,0,0,2.45,4.88c3.58,4.8,4.47,10.49,5.25,16.18.27,1.94.47,3.81,2.84,4s3.23-1.27,3.37-3.41c.05-.83,0-1.73,1.48-1.29,2.59.77,3.52-.75,3.56-3.06a22.36,22.36,0,0,0-1.95-8.66A75.75,75.75,0,0,1,252,417.53a14.73,14.73,0,0,0-2.91-7.73,13,13,0,0,1-2.53-6.63c-.49-4.32-1.73-5.75-6-6.56a8.73,8.73,0,0,1-5.72-3.92c-2.82-3.88-5.42-7.87-8-11.9-2.38-3.72-1.65-6.09,2.55-7.58,6.27-2.21,12.19-4.95,13.81-12.48.67-3.1,2.81-5.11,5.67-6.51,2.42-1.17,5-2.41,6.38-4.8a28.57,28.57,0,0,1,9.63-10.06,2.85,2.85,0,0,0,1.31-3.74c-.72-1.59-2.15-1.78-3.68-1.55a16,16,0,0,0-5.08,1.95c-6,3.17-10.77,8-15.83,12.41-1.35,1.17-2.27,3-4.4,3a8,8,0,0,0-6.3,3c-2.78,3.15-6.67,4.19-10.21,6.1-.64-2.43-.71-4.54.55-6.6a8.38,8.38,0,0,0,.95-4.18c.14-4.24-1.46-8.22-1.94-12.39a10.08,10.08,0,0,1,.43-5.51c1.41-3.31,2.32-6.71,1.63-10.38-.34-1.78-.76-3.42-2.69-4.08s-3.25.34-4.27,1.66-1.68,1-2.86.37c-2.11-1.17-3.5-.12-4.25,1.9a7.6,7.6,0,0,0-.18,4c1.73,9.36.21,18.4-2.72,27.26-2.23,6.72-2.54,14-5.77,20.41a5.29,5.29,0,0,0-.42,2.54,3.91,3.91,0,0,0,2.25,3.73c1.66.74,2.73-.24,3.73-1.36ZM119.5,342.12c-1.29,0-1.6.9-1.77,1.73a10.76,10.76,0,0,1-2,4.43,9.49,9.49,0,0,0-2.18,6.64,7.36,7.36,0,0,1-2,5.56,10.43,10.43,0,0,0-2.42,4.8c-2,7.5-5.69,13.41-14.06,15-1.83.34-2.7,1.7-2,3.4a8.73,8.73,0,0,0,4,4.74c4.28,2.09,7.44,6.24,12.54,6.86.26,0,.48.31.73.46a19.8,19.8,0,0,1,7.61,9.52,15.14,15.14,0,0,0,4.78,5.65,1.45,1.45,0,0,0,1.62.24.84.84,0,0,0,.34-1.23c-2-3.29-1.21-7.12-2.12-10.61a16.51,16.51,0,0,1-.18-7.4c.35-1.85.66-3.78-.72-5.51-3.24-4.05-3.22-8.47-1.18-13a5,5,0,0,0-.07-5.14,7.75,7.75,0,0,1-.72-6.65,11.85,11.85,0,0,0,.2-6.23c-.56-2.89-.32-5.77,2.14-8,.82-.73,1.62-1.59.92-2.71A5.4,5.4,0,0,0,119.5,342.12Zm54.11,47.17c0,2.11.86,2.75,3.16,2.13A9.45,9.45,0,0,1,185,392.7c2,1.39,4,1.69,6.12.23,1.06-.73,2.37-.61,3.61-.79,1.78-.25,3.57,2.1,5,.4,1.11-1.29,1.29-3.35,2.05-5s.61-2.7-1.4-3.47c-5-1.94-7.08-6.1-5.9-11.3.28-1.22.66-2.41,1-3.61.45-1.6,2.26-3.42,1.15-4.69-.94-1.08-2.58,1-4.06,1.23a1.4,1.4,0,0,1-.28.06c-4.63.2-8.41,1.57-11.22,5.79-1.68,2.53-4.67,4.2-7.09,6.23-1.17,1-2.11,2.12-1.33,3.72C173.91,384.1,174.75,386.69,173.61,389.29Zm13.89,19.29c5.59.13,9.42-2.83,9.81-7.25.13-1.5,0-3-1.44-3.84a3.08,3.08,0,0,0-4,.6c-2.42,2.35-4.7,1.88-7.24.19-2.35-1.56-4.74-3.63-7.83-1.32a1.63,1.63,0,0,1-1.37,0c-2.72-1.23-4.8,0-6.89,1.55-1.12.83-2.4,2-3.81.59-1.26-1.29-.48-2.72.2-4,1.14-2.12,2.45-4.14,3.52-6.29s1-4.5-1.14-5.93c-2.59-1.72-2-3.45-.45-5.25a21.66,21.66,0,0,1,3.56-3.34c2.79-2.07,5.34-4.4,7.92-6.71.75-.67,1.67-1.53,1.21-2.41-2-3.85,1.37-3.08,3-3.37,2.44-.46,5-.39,7.46-.68a7.81,7.81,0,0,0,5.52-3.34c1.72-2.41.93-4.67-1.86-5.66-2.43-.86-4.76-.12-7.08.46a4.17,4.17,0,0,1-4-.71c-3.8-3-13.36-.37-14.5,4.33-.82,3.39-2.67,4.36-5.44,5.23-4,1.28-6.6,3.83-6.46,8.43.06,1.78-.9,3.3-1.45,4.94-2,5.83-3,12-7.16,16.95a5,5,0,0,0-.57,2.5c-.11,1,.14,2.25,1.06,2.5,2.61.7,1.79,2.21,1.31,3.89-1.49,5.33-.43,6.7,5,6.48,2.37-.09,3.46.68,2.91,3.21a4.51,4.51,0,0,0,1.86,4.84,4.44,4.44,0,0,1,1.78,3.72,15.36,15.36,0,0,0,.59,3.69c.86,2.92,3.44,3.51,5.44,1.2a17.5,17.5,0,0,0,2-3.46c1.12-2.12,2.1-4.32,3.29-6.4.61-1.06,1.5-2.33,3-1.75,2.39.95,4.12-.18,5.8-1.49C183.1,409.12,185.25,408,187.5,408.58Zm-57.69,5.81c-.06,3.59-.68,6.72,1.23,9.49a3.62,3.62,0,0,0,3.61,1.9c1.58-.23,2.19-1.48,2.48-2.84a11.92,11.92,0,0,0,.47-4,25,25,0,0,1,2.32-14.55c1.22-2.62,2.13-5.66.46-8.33-2.34-3.76-1.42-6.74,1-10,2.28-3,1.66-5.74-1.53-7.83a5.66,5.66,0,0,1-2.54-4.27,14.24,14.24,0,0,1,.71-6.25c1.14-3.85,1.88-7.66-.17-11.47a4.58,4.58,0,0,1-.08-2.84c.21-1.64.51-3.4-1.29-4.35a4.6,4.6,0,0,0-5.15.48c-.68.51-1.21,1.06-2.28.85-3.74-.71-5,.47-4.12,4.2a13.71,13.71,0,0,1-.35,7.88c-.51,1.52-.62,3.25.95,4.15,2.31,1.33,1.84,3.11,1.18,5-.58,1.63-1.36,3.18-2,4.78-.94,2.38-1.19,4.87.79,6.73,2.37,2.23,2.54,4.79,1.95,7.63-1,4.9-.06,9.82,1,14.42C129.23,408.47,130.39,411.52,129.81,414.39Zm2.55-94.26c0-1.81,0-3.64-1.82-4.61a5,5,0,0,0-5.46.45c-1.77,1.24-3.27,3.18-2.35,5.12,1.59,3.33.23,5.76-1.13,8.55-2.08,4.25-1.14,6.6,3.1,9.2a6.07,6.07,0,0,1,1.44,1.38,4.83,4.83,0,0,0,5.41,1.71,4.78,4.78,0,0,0,3.74-4.31A105.75,105.75,0,0,1,137,327.13c.44-2.14-.18-4.57-2.93-4.71C132.09,322.32,131.8,321.72,132.36,320.13Z" transform="translate(-10.5 -263.41)"/><path class="cls-1" d="M51.09,464.74c.54-2-.56-4-3.06-5.38-1.51-.84-1.91-2.26-1.74-4a46.91,46.91,0,0,0,.18-4.89c0-2.4-1-4.4-2-6.62-2.15-5-6-9.53-5.11-15.58.18-1.14,0-2.41.73-3.34,3-3.89,1.22-7.48-1.09-10.56s-2.92-5.43-1.41-9c1.7-3.95.74-8.11-.38-12.16-1.27-4.55-4.08-8.76-2.61-13.91.39-1.36-1.13-2.57-2.1-3.63-2.36-2.57-3.52-5.46-2.64-9a5.24,5.24,0,0,0-.24-3.13c-1.76-4.69-2.8-9.39-1.08-14.38,1.16-3.34.08-6.22-2.37-8.67C25,339.43,24,338.19,22.88,337c-3-3.33-3.31-7.21-2.34-11.37.38-1.59.78-3.17,1.09-4.77.55-2.95,0-5.46-2.59-7.41-3-2.25-3.75-5.48-3.14-9,.5-2.93,2.08-3.92,4.9-2.95,1.55.54,2.39-.1,3.19-1.14a17.93,17.93,0,0,1,5.59-4.47c2.44-1.39,4.93-2.06,7.71-1a9,9,0,0,0,9-1.46c2.79-2.05,5.57-4.12,8.3-6.24,5.33-4.14,11.16-4.17,16.8-1.26,4.69,2.41,9.7,4.25,14,7.46,1.53,1.16,3.31.76,5,.65,4.23-.27,5,.39,5.65,4.58.47,3.37.6,3.45,3.74,2.4,5.32-1.76,9.74,1.16,10.12,6.78a18.35,18.35,0,0,1-.09,4.32c-.5,3-.34,5.46,2.32,7.7,2.35,2,2.07,5.09,1.31,7.85a18.56,18.56,0,0,0-.49,7.7c.67,4.69,0,9-3.64,12.5-1.11,1.07-1.1,2.37-1,3.74.2,3-.15,5.79-3,7.62-.82.54-.84,1.46-1,2.32a22.44,22.44,0,0,1-2.43,7.65c-1.73,3.1-4.1,5.36-7.86,5.55a5.58,5.58,0,0,0-5.47,3.89c-.8,2.1-2.65,3.22-4.6,4.15-.51.24-1.1.56-.91,1.28a1.13,1.13,0,0,0,1,.87c4.25,0,5.36,3.49,7,6.37.86,1.51,1,3.55,4,2.47,1.93-.71,3,1.66,3.76,3.32.81,1.89,1.52,3,4,2.17s4.65.78,6.41,2.51a10.54,10.54,0,0,1,2.42,3.2c1.89,4.37,4.27,8.18,8.4,10.94,2.48,1.67,2.91,4.9,3.58,7.69.6,2.47,1.83,4.19,4.29,4.95,2.19.67,3,2.59,3.87,4.41a10.14,10.14,0,0,0,5.74,5.36c3.7,1.5,5.94,4.17,6.06,8.29a8.12,8.12,0,0,0,3,6c7.27,6.58,9.46,15.33,10.43,24.58a2.48,2.48,0,0,1-1.56,2.81,2.32,2.32,0,0,1-2.81-.92,31.52,31.52,0,0,1-2.21-3.37,7,7,0,0,0-3.09-2.91c-5.78-2.75-12.37-12.74-12.61-19.27a3.56,3.56,0,0,0-2.16-3.15,22.59,22.59,0,0,1-11.26-12.21,2.86,2.86,0,0,0-2.62-1.92c-3.53-.34-5.7-2.51-7.12-5.58-.32-.7-.62-1.41-.94-2.11-2.23-4.8-2.24-4.84-7.17-3.53-2.6.68-4.09-.49-4.89-2.77a38.07,38.07,0,0,0-2-5.1c-1.15-2.2-2.67-3.27-5.25-4.17-3.11-1.09-5.39-3.24-9-.8-1.34.91-3-1.27-3.81-2.84A35.69,35.69,0,0,0,74.59,403c-.76-.9-1.61-1.8-2.93-1.41-4.31,1.27-7.14-1-9.83-3.86-.9-.94-1.62-2.83-3.41-1.84-1.94,1.06-1.94,3-1.29,4.83a34.58,34.58,0,0,0,1.72,4,4.73,4.73,0,0,1,.33,4.44c-1.14,2.13-.7,3.9.29,5.93a9.46,9.46,0,0,1-.71,9.38c-1.89,3.15-1.77,6,.61,8.74,3,3.41,3.49,7.05,1.61,11.22-1.09,2.42-.48,4.92.84,7.17,2,3.45,2.16,5.15-.62,8-2.32,2.37-3.22,4.76-2.55,8a10.87,10.87,0,0,1,0,4c-.49,2.79-3.06,3.6-5.14,1.68C51.23,471.16,50.75,468.47,51.09,464.74ZM155,477.68c-.58-9-2.74-17.16-9.48-23.51-1.91-1.81-3.72-3.69-3.71-6.58,0-3.84-1.86-6.32-5.38-7.7a10.36,10.36,0,0,1-6.14-5.75,7.61,7.61,0,0,0-4.53-4.52c-2.12-.8-3.15-2.62-3.75-4.81-.73-2.67-.9-6-3.28-7.52-4.34-2.85-6.82-6.83-8.73-11.4a7.17,7.17,0,0,0-1.49-2.11c-1.94-2-4.06-3.62-7.11-2.21-1.59.73-2.54-.11-3.23-1.46-.56-1.11-1.09-2.25-1.7-3.33s-1.24-1.56-2.26-.5c-1.52,1.58-2.35.42-3.07-.83-1.2-2.09-2.31-4.22-3.5-6.31-.74-1.31-1.69-2.32-3.43-2.11-2.26.27-3.1-1.56-3.6-3.07s1.12-2.27,2.31-2.88c1.74-.89,3.37-1.86,4.1-3.83a6.44,6.44,0,0,1,6.18-4.42c3.85-.14,5.89-2.43,7.41-5.52a20.57,20.57,0,0,0,1.86-6.64,3.92,3.92,0,0,1,1.7-3.16c2.06-1.33,2.48-3.4,2.1-5.58a6.16,6.16,0,0,1,1.81-5.78c3-2.93,3.57-6.53,2.92-10.4a17.59,17.59,0,0,1,.42-8.25c.67-2.23,1.12-4.89-.91-6.5-3-2.35-3.12-5.24-2.78-8.51a32.26,32.26,0,0,0,.08-4.61c-.19-4.17-3.4-6.37-7.32-5.1-4.61,1.51-6,.75-6.47-4.07-.25-2.45-1.28-3.2-3.53-2.82s-4.24.57-6.1-.81c-4.3-3.17-9.31-5-14-7.47-4.92-2.6-10-2.5-14.62,1.07-2.75,2.11-5.45,4.29-8.3,6.24S41.56,298.39,38,297c-4.6-1.78-8,.33-11.22,3.16a25,25,0,0,0-2.23,2.26c-1.15,1.29-2.43,1.85-4.07.89-1.88-1.09-2.45.22-2.73,1.63a7,7,0,0,0,2.93,7.34c2.78,2.11,3.46,5,3,8.2a48.65,48.65,0,0,1-1.09,5.07c-1.19,4.47-.39,8.36,3.09,11.59a40.27,40.27,0,0,1,2.93,3.19,8.73,8.73,0,0,1,2,8.62c-1.65,5-.79,9.69,1,14.38a4.78,4.78,0,0,1,.28,3.12c-1.15,3.52.29,6.14,2.63,8.57,1.3,1.34,2.55,3,2,4.88-1,3.47.35,6.39,1.43,9.47,1.89,5.39,3.61,10.92,1.48,16.57-1,2.78-.7,4.64,1,7.06,2.77,3.91,4.82,8.27,1.3,13-.59.8-.38,1.86-.52,2.8-.75,5.33,2.56,9.51,4.75,13.61a19.37,19.37,0,0,1,2.26,11.69c-.2,1.91.11,3.37,1.91,4.38a5.27,5.27,0,0,1,2.74,5.58,16,16,0,0,0,0,3.46c.23,1.91.63,4.5,2.83,4.3,2-.18,1.25-2.83,1-4.19-.83-3.77,0-6.69,2.95-9.26,1.83-1.6,2.13-3.6.51-5.87a8.87,8.87,0,0,1-1-8.82c1.5-3.53,1.09-6.45-1.35-9.32-2.8-3.27-3.22-6.75-.91-10.61a8.94,8.94,0,0,0,.13-9.35c-.56-1-1.25-2.28-.64-3.29,2-3.26.63-6.06-.82-8.95a8.72,8.72,0,0,1-.77-2.76,5.29,5.29,0,0,1,2.93-5.49c2-1.18,3.23.29,4.53,1.39a15.73,15.73,0,0,1,2,2,6.36,6.36,0,0,0,6.94,2.33c2-.5,3.36.35,4.56,1.74a38.94,38.94,0,0,1,4.62,7c.93,1.72,2.07,2.55,3.79.8.68-.7,1.78-1.54,2.53-1.05,3,2,6.34,3.09,9.49,4.68a2.6,2.6,0,0,1,.86,1.14c.91,1.8,1.92,3.56,2.66,5.43,1.63,4.15,1.59,4.23,5.65,2.72,2.28-.85,4-.38,5.08,1.78s2.08,4.12,3.08,6.19,2.52,3.82,4.91,4c2.85.24,4.27,1.91,5.27,4.25a17.74,17.74,0,0,0,8.3,9.23c3,1.56,5.56,3.6,4.58,7.67a2.63,2.63,0,0,0,.29,1.39c1.85,4.84,5.55,8.49,8.24,12.8a2.16,2.16,0,0,0,1.21.74,10.32,10.32,0,0,1,6.68,5.92A2.17,2.17,0,0,0,155,477.68Z" transform="translate(-10.5 -263.41)"/><path class="cls-1" d="M209,373.56l-3.88,4.33c-1,1.12-2.07,2.1-3.73,1.36a3.91,3.91,0,0,1-2.25-3.73,5.29,5.29,0,0,1,.42-2.54c3.23-6.44,3.54-13.69,5.77-20.41,2.93-8.86,4.45-17.9,2.72-27.26a7.6,7.6,0,0,1,.18-4c.75-2,2.14-3.07,4.25-1.9,1.18.65,1.91.88,2.86-.37s2.41-2.29,4.27-1.66,2.35,2.3,2.69,4.08c.69,3.67-.22,7.07-1.63,10.38a10.08,10.08,0,0,0-.43,5.51c.48,4.17,2.08,8.15,1.94,12.39a8.38,8.38,0,0,1-.95,4.18c-1.26,2.06-1.19,4.17-.55,6.6,3.54-1.91,7.43-2.95,10.21-6.1a8,8,0,0,1,6.3-3c2.13,0,3.05-1.79,4.4-3,5.06-4.41,9.79-9.24,15.83-12.41a16,16,0,0,1,5.08-1.95c1.53-.23,3,0,3.68,1.55a2.85,2.85,0,0,1-1.31,3.74,28.57,28.57,0,0,0-9.63,10.06c-1.34,2.39-4,3.63-6.38,4.8-2.86,1.4-5,3.41-5.67,6.51-1.62,7.53-7.54,10.27-13.81,12.48-4.2,1.49-4.93,3.86-2.55,7.58,2.58,4,5.18,8,8,11.9a8.73,8.73,0,0,0,5.72,3.92c4.26.81,5.5,2.24,6,6.56a13,13,0,0,0,2.53,6.63,14.73,14.73,0,0,1,2.91,7.73,75.75,75.75,0,0,0,5.13,20.35,22.36,22.36,0,0,1,1.95,8.66c0,2.31-1,3.83-3.56,3.06-1.46-.44-1.43.46-1.48,1.29-.14,2.14-1.08,3.59-3.37,3.41s-2.57-2-2.84-4c-.78-5.69-1.67-11.38-5.25-16.18a14.75,14.75,0,0,1-2.45-4.88c-1.05-3.89-2.62-7.39-5.92-10-1.6-1.25-1.95-3.26-2.31-5.16-1-5.06-2.37-9.89-6.81-13.15a1.32,1.32,0,0,1-.51-.68c-.82-3.26-1.57-2.9-4.85-1.66-3.74,1.42-3.79,3.52-4.13,6.11a85.14,85.14,0,0,1-7.66,25.52c-.61,1.27-1.27,2.48-2.92,2.27-1.5-.18-1.56-1.62-2.21-2.63-2.92-4.5-.94-8.74.38-13,2-6.27,2.67-12.76,3.63-19.22.06-.36.1-.89-.1-1.11-2.59-2.93-1.16-5.58.25-8.46A13.16,13.16,0,0,0,208,382.8a19.57,19.57,0,0,1,1.59-7.82C209.81,374.56,209.84,374,209,373.56Zm-3.37,57c3-7,6.13-13.72,7.14-21.21.42-3,1.06-6.05,1.63-9.07.37-2,.75-3.95,3.64-2.95,1,.35,1.48-.62,2.06-1.25,2.06-2.22,4.07-1.85,5.29,1,.38.87.46,1.93,1.25,2.55,4.42,3.4,5.92,8.31,7,13.43.43,2,.72,4,2.46,5.37,2.86,2.24,4.35,5.31,5.34,8.7a13.36,13.36,0,0,0,1.82,4.53c4.2,5.55,5.88,11.95,6.47,18.74.07.76,0,1.72,1,1.81,1.23.11,1.25-.95,1.31-1.81a24.09,24.09,0,0,0-.3-5.75,1.14,1.14,0,0,1,.7-1.41c.7-.23,1,.35,1.28.87s.51,1.26.86,1.83c.47.77.82,2.05,2,1.63,1-.36.55-1.52.44-2.33a28.91,28.91,0,0,0-1.69-6.4,74.69,74.69,0,0,1-5.25-20.59,14.53,14.53,0,0,0-2.95-7.7,12,12,0,0,1-2.56-6.93c-.08-2.94-1.49-4.66-4.45-5.08-3.16-.46-5.31-2.25-7.12-4.87-2.66-3.86-5.23-7.77-7.84-11.66-3.22-4.8-2-8.75,3.54-10.63,5.83-2,11.25-4.61,12.74-11.6.72-3.4,3.11-5.62,6.21-7.16,2.68-1.32,5.43-2.74,6.77-5.6,1.67-3.56,4.72-5.73,7.56-8.15.8-.68,2.66-1,1.86-2.35-.56-1-2.15-.33-3.21.1a34.31,34.31,0,0,0-3.08,1.57c-5.48,3-9.75,7.46-14.39,11.46-2.19,1.9-4,4.21-7.31,3.95a3.13,3.13,0,0,0-2.5,1.29c-3.34,4.12-8.65,5.25-12.6,8.43-1.34,1.08-2.1.64-2.14-1.06-.08-3.3-1.09-6.62,1-9.79a6.23,6.23,0,0,0,.53-5.34c-1.1-2.94-.79-6.11-1.75-8.95a9.52,9.52,0,0,1,.62-7.46,16.33,16.33,0,0,0,1.34-8.44c-.11-1.16-.09-2.45-1.38-2.94s-1.86.73-2.55,1.44c-1,1.05-1.84,2.19-3.63,1.17-2.27-1.3-2.92-.88-2.94,1.7a23.14,23.14,0,0,0,.31,2.86,59.2,59.2,0,0,1,0,14.63c-.92,7.39-4.46,14.12-5.15,21.54a15.9,15.9,0,0,1-1.79,6,18.21,18.21,0,0,0-2,6.28c-.1.9,0,1.84.9,2.26s1.35-.44,1.85-1c1.16-1.29,2.29-2.6,3.5-3.84.78-.8,1.56-1.94,2.91-1.22a2.44,2.44,0,0,1,1.11,3c-1.43,4.53-1.11,9.36-2.45,13.84-.86,2.88-2.78,5.46-.32,8.39.19.23.08.75,0,1.13a116.93,116.93,0,0,1-3.37,19C204.08,421.07,201.66,425.54,205.64,430.58Z" transform="translate(-10.5 -263.41)"/><path class="cls-1" d="M187.5,408.58c-2.25-.56-4.4.54-6.46,2.15-1.68,1.31-3.41,2.44-5.8,1.49-1.46-.58-2.35.69-3,1.75-1.19,2.08-2.17,4.28-3.29,6.4a17.5,17.5,0,0,1-2,3.46c-2,2.31-4.58,1.72-5.44-1.2a15.36,15.36,0,0,1-.59-3.69,4.44,4.44,0,0,0-1.78-3.72,4.51,4.51,0,0,1-1.86-4.84c.55-2.53-.54-3.3-2.91-3.21-5.43.22-6.49-1.15-5-6.48.48-1.68,1.3-3.19-1.31-3.89-.92-.25-1.17-1.49-1.06-2.5a5,5,0,0,1,.57-2.5c4.11-4.94,5.19-11.12,7.16-16.95.55-1.64,1.51-3.16,1.45-4.94-.14-4.6,2.44-7.15,6.46-8.43,2.77-.87,4.62-1.84,5.44-5.23,1.14-4.7,10.7-7.29,14.5-4.33a4.17,4.17,0,0,0,4,.71c2.32-.58,4.65-1.32,7.08-.46,2.79,1,3.58,3.25,1.86,5.66a7.81,7.81,0,0,1-5.52,3.34c-2.48.29-5,.22-7.46.68-1.61.29-5-.48-3,3.37.46.88-.46,1.74-1.21,2.41-2.58,2.31-5.13,4.64-7.92,6.71a21.66,21.66,0,0,0-3.56,3.34c-1.51,1.8-2.14,3.53.45,5.25,2.17,1.43,2.23,3.73,1.14,5.93s-2.38,4.17-3.52,6.29c-.68,1.27-1.46,2.7-.2,4,1.41,1.44,2.69.24,3.81-.59,2.09-1.57,4.17-2.78,6.89-1.55a1.63,1.63,0,0,0,1.37,0c3.09-2.31,5.48-.24,7.83,1.32,2.54,1.69,4.82,2.16,7.24-.19a3.08,3.08,0,0,1,4-.6c1.4.88,1.57,2.34,1.44,3.84C196.92,405.75,193.09,408.71,187.5,408.58Zm-.48-1.91c4.91.11,6.8-1,8.11-4.47.35-.93.62-2-.2-2.69-1-.86-1.78,0-2.5.65-2.48,2.09-5.1,2-7.72.37s-4.89-3.67-8.06-1.36a1,1,0,0,1-.84,0c-2.83-1.49-4.91.12-7.09,1.59-1.74,1.17-3.66,1.44-5.3-.15a4.16,4.16,0,0,1-.69-5.31c1.22-2.28,2.49-4.55,3.77-6.81,1-1.78.75-3.18-.89-4.52-2.34-1.92-2.6-4-1-6.53a20,20,0,0,1,4.84-4.91,42.56,42.56,0,0,0,6.16-5.21c.81-.93,2.74-1.55.42-3.08-.8-.52,0-1.61.69-2.17a9.72,9.72,0,0,1,5.82-2.23c2.11-.09,4.22-.31,6.32-.48a6.53,6.53,0,0,0,4.37-2c.6-.62,1.32-1.26,1-2.23s-1.4-1.27-2.33-1.41c-1.76-.25-3.4.46-5.09.82a5.91,5.91,0,0,1-5.2-.81c-3.93-2.92-11.3.08-12.22,5a4.09,4.09,0,0,1-3.25,3.57,25.59,25.59,0,0,0-4.08,1.42c-2.33,1.06-4,2.76-4,5.49a15.21,15.21,0,0,1-2,7.14A6.74,6.74,0,0,0,155,379.9c.24,3.07-1,5.61-2.72,8a31.34,31.34,0,0,0-2.69,4.09c-.44.87-1.2,2.2-.34,2.93s1.57-.63,2.29-1.14,1.18-1.21,2-.6.49,1.41.2,2.13c-.8,2-1.82,3.84-2.44,5.84-1.11,3.6-.53,4.24,3.1,4s5.31,1.56,4.81,5.19c-.15,1.12-.15,2.24.81,2.9,2.54,1.75,2.85,4.37,3.09,7.09.09,1-.09,2.38,1.25,2.61s1.69-1.06,2.16-2c1.41-2.73,2.48-5.64,4.3-8.15.91-1.25,2-3,3.57-2.53,3.3,1.05,5.26-1,7.5-2.5A7.74,7.74,0,0,1,187,406.67Z" transform="translate(-10.5 -263.41)"/><path class="cls-4" d="M155,477.68a2.17,2.17,0,0,1-1.94-1.58,10.32,10.32,0,0,0-6.68-5.92,2.16,2.16,0,0,1-1.21-.74c-2.69-4.31-6.39-8-8.24-12.8a2.63,2.63,0,0,1-.29-1.39c1-4.07-1.57-6.11-4.58-7.67a17.74,17.74,0,0,1-8.3-9.23c-1-2.34-2.42-4-5.27-4.25-2.39-.2-3.9-1.9-4.91-4s-2-4.15-3.08-6.19-2.8-2.63-5.08-1.78c-4.06,1.51-4,1.43-5.65-2.72C99,417.52,98,415.76,97.12,414a2.6,2.6,0,0,0-.86-1.14c-3.15-1.59-6.51-2.7-9.49-4.68-.75-.49-1.85.35-2.53,1.05-1.72,1.75-2.86.92-3.79-.8a38.94,38.94,0,0,0-4.62-7c-1.2-1.39-2.61-2.24-4.56-1.74a6.36,6.36,0,0,1-6.94-2.33,15.73,15.73,0,0,0-2-2c-1.3-1.1-2.53-2.57-4.53-1.39a5.29,5.29,0,0,0-2.93,5.49,8.72,8.72,0,0,0,.77,2.76c1.45,2.89,2.79,5.69.82,8.95-.61,1,.08,2.26.64,3.29a8.94,8.94,0,0,1-.13,9.35c-2.31,3.86-1.89,7.34.91,10.61,2.44,2.87,2.85,5.79,1.35,9.32a8.87,8.87,0,0,0,1,8.82c1.62,2.27,1.32,4.27-.51,5.87-2.95,2.57-3.78,5.49-2.95,9.26.3,1.36,1.07,4-1,4.19-2.2.2-2.6-2.39-2.83-4.3a16,16,0,0,1,0-3.46,5.27,5.27,0,0,0-2.74-5.58c-1.8-1-2.11-2.47-1.91-4.38A19.37,19.37,0,0,0,46,442.44c-2.19-4.1-5.5-8.28-4.75-13.61.14-.94-.07-2,.52-2.8,3.52-4.73,1.47-9.09-1.3-13-1.71-2.42-2.06-4.28-1-7.06,2.13-5.65.41-11.18-1.48-16.57-1.08-3.08-2.45-6-1.43-9.47.54-1.86-.71-3.54-2-4.88-2.34-2.43-3.78-5.05-2.63-8.57a4.78,4.78,0,0,0-.28-3.12c-1.8-4.69-2.66-9.36-1-14.38a8.73,8.73,0,0,0-2-8.62,40.27,40.27,0,0,0-2.93-3.19c-3.48-3.23-4.28-7.12-3.09-11.59a48.65,48.65,0,0,0,1.09-5.07c.5-3.24-.18-6.09-3-8.2A7,7,0,0,1,17.78,305c.28-1.41.85-2.72,2.73-1.63,1.64,1,2.92.4,4.07-.89a25,25,0,0,1,2.23-2.26C30,297.36,33.43,295.25,38,297c3.53,1.36,6.64-.17,9.47-2.11s5.55-4.13,8.3-6.24c4.64-3.57,9.7-3.67,14.62-1.07,4.67,2.46,9.68,4.3,14,7.47,1.86,1.38,4,1.16,6.1.81s3.28.37,3.53,2.82c.47,4.82,1.86,5.58,6.47,4.07,3.92-1.27,7.13.93,7.32,5.1a32.26,32.26,0,0,1-.08,4.61c-.34,3.27-.19,6.16,2.78,8.51,2,1.61,1.58,4.27.91,6.5a17.59,17.59,0,0,0-.42,8.25c.65,3.87,0,7.47-2.92,10.4a6.16,6.16,0,0,0-1.81,5.78c.38,2.18,0,4.25-2.1,5.58a3.92,3.92,0,0,0-1.7,3.16,20.57,20.57,0,0,1-1.86,6.64c-1.52,3.09-3.56,5.38-7.41,5.52A6.44,6.44,0,0,0,87,377.25c-.73,2-2.36,2.94-4.1,3.83-1.19.61-2.81,1.34-2.31,2.88S82,387.3,84.22,387c1.74-.21,2.69.8,3.43,2.11,1.19,2.09,2.3,4.22,3.5,6.31.72,1.25,1.55,2.41,3.07.83,1-1.06,1.72-.44,2.26.5s1.14,2.22,1.7,3.33c.69,1.35,1.64,2.19,3.23,1.46,3-1.41,5.17.17,7.11,2.21a7.17,7.17,0,0,1,1.49,2.11c1.91,4.57,4.39,8.55,8.73,11.4,2.38,1.56,2.55,4.85,3.28,7.52.6,2.19,1.63,4,3.75,4.81a7.61,7.61,0,0,1,4.53,4.52,10.36,10.36,0,0,0,6.14,5.75c3.52,1.38,5.4,3.86,5.38,7.7,0,2.89,1.8,4.77,3.71,6.58C152.27,460.52,154.43,468.68,155,477.68Zm-102.83-105c0,1.08,0,2.16,1,2.82,1.24.78,2.26,0,3.13-.68,1.92-1.61,3.68-2.15,5.86-.27,2.79,2.4,3.75,2.32,6.25-.45a16.19,16.19,0,0,1,9-5.23c5.33-1.09,6.66-2.1,7.07-7.48.34-4.57,2.64-7.85,5.33-11,2.9-3.41,3.45-7.05,1-10.87-.74-1.18-1.23-2.29,0-3.34,2.11-1.86,1.37-3.5-.23-5.14-.94-1-1.86-1.95-2.83-2.88-1.5-1.45-2.45-2.81-1.92-5.27.79-3.62-3-6.54-6.41-5.2-1.8.72-3.85,1-4.51-.94-1.6-4.67-4.66-5.14-9.16-5.31-4.72-.19-8.67,0-12.06,3.51a8.22,8.22,0,0,1-8.41,2.38c-3.38-.78-4.78.48-5.23,3.94-.3,2.28-.15,4.4,1.62,6.15a3.62,3.62,0,0,1,.91,3.09c-.21,3.79-1.21,7.76,2.57,10.85a5.41,5.41,0,0,1,1.4,6.57,4,4,0,0,0,1.53,5.12c3.07,1.73,3.19,4.31,2.72,7.19-.31,1.88,0,3.57,1.66,4.54s1.78,2.24.89,3.82A7.8,7.8,0,0,0,52.18,372.72Z" transform="translate(-10.5 -263.41)"/><path class="cls-2" d="M205.64,430.58c-4-5-1.56-9.51-.28-14.08a116.93,116.93,0,0,0,3.37-19c0-.38.15-.9,0-1.13-2.46-2.93-.54-5.51.32-8.39,1.34-4.48,1-9.31,2.45-13.84a2.44,2.44,0,0,0-1.11-3c-1.35-.72-2.13.42-2.91,1.22-1.21,1.24-2.34,2.55-3.5,3.84-.5.55-.94,1.41-1.85,1s-1-1.36-.9-2.26a18.21,18.21,0,0,1,2-6.28,15.9,15.9,0,0,0,1.79-6c.69-7.42,4.23-14.15,5.15-21.54a59.2,59.2,0,0,0,0-14.63,23.14,23.14,0,0,1-.31-2.86c0-2.58.67-3,2.94-1.7,1.79,1,2.6-.12,3.63-1.17.69-.71,1.27-1.93,2.55-1.44s1.27,1.78,1.38,2.94a16.33,16.33,0,0,1-1.34,8.44,9.52,9.52,0,0,0-.62,7.46c1,2.84.65,6,1.75,8.95a6.23,6.23,0,0,1-.53,5.34c-2.07,3.17-1.06,6.49-1,9.79,0,1.7.8,2.14,2.14,1.06,3.95-3.18,9.26-4.31,12.6-8.43a3.13,3.13,0,0,1,2.5-1.29c3.34.26,5.12-2.05,7.31-3.95,4.64-4,8.91-8.5,14.39-11.46a34.31,34.31,0,0,1,3.08-1.57c1.06-.43,2.65-1.06,3.21-.1.8,1.38-1.06,1.67-1.86,2.35-2.84,2.42-5.89,4.59-7.56,8.15-1.34,2.86-4.09,4.28-6.77,5.6-3.1,1.54-5.49,3.76-6.21,7.16-1.49,7-6.91,9.63-12.74,11.6-5.54,1.88-6.76,5.83-3.54,10.63,2.61,3.89,5.18,7.8,7.84,11.66,1.81,2.62,4,4.41,7.12,4.87,3,.42,4.37,2.14,4.45,5.08a12,12,0,0,0,2.56,6.93,14.53,14.53,0,0,1,2.95,7.7,74.69,74.69,0,0,0,5.25,20.59,28.91,28.91,0,0,1,1.69,6.4c.11.81.54,2-.44,2.33-1.18.42-1.53-.86-2-1.63-.35-.57-.56-1.23-.86-1.83s-.58-1.1-1.28-.87a1.14,1.14,0,0,0-.7,1.41,24.09,24.09,0,0,1,.3,5.75c-.06.86-.08,1.92-1.31,1.81-1-.09-.95-1.05-1-1.81-.59-6.79-2.27-13.19-6.47-18.74a13.36,13.36,0,0,1-1.82-4.53c-1-3.39-2.48-6.46-5.34-8.7-1.74-1.36-2-3.39-2.46-5.37-1.11-5.12-2.61-10-7-13.43-.79-.62-.87-1.68-1.25-2.55-1.22-2.81-3.23-3.18-5.29-1-.58.63-1.06,1.6-2.06,1.25-2.89-1-3.27,1-3.64,2.95-.57,3-1.21,6-1.63,9.07C211.77,416.86,208.66,423.58,205.64,430.58Z" transform="translate(-10.5 -263.41)"/><path class="cls-2" d="M187,406.67a7.74,7.74,0,0,0-5.15,1.1c-2.24,1.52-4.2,3.55-7.5,2.5-1.54-.48-2.66,1.28-3.57,2.53-1.82,2.51-2.89,5.42-4.3,8.15-.47.91-.87,2.2-2.16,2s-1.16-1.6-1.25-2.61c-.24-2.72-.55-5.34-3.09-7.09-1-.66-1-1.78-.81-2.9.5-3.63-1.23-5.46-4.81-5.19s-4.21-.37-3.1-4c.62-2,1.64-3.88,2.44-5.84.29-.72.54-1.57-.2-2.13s-1.38.16-2,.6-1.35,1.93-2.29,1.14-.1-2.06.34-2.93a31.34,31.34,0,0,1,2.69-4.09c1.72-2.4,3-4.94,2.72-8a6.74,6.74,0,0,1,1.13-3.53,15.21,15.21,0,0,0,2-7.14c0-2.73,1.67-4.43,4-5.49a25.59,25.59,0,0,1,4.08-1.42,4.09,4.09,0,0,0,3.25-3.57c.92-4.9,8.29-7.9,12.22-5a5.91,5.91,0,0,0,5.2.81c1.69-.36,3.33-1.07,5.09-.82.93.14,2,.32,2.33,1.41s-.44,1.61-1,2.23a6.53,6.53,0,0,1-4.37,2c-2.1.17-4.21.39-6.32.48a9.72,9.72,0,0,0-5.82,2.23c-.69.56-1.49,1.65-.69,2.17,2.32,1.53.39,2.15-.42,3.08a42.56,42.56,0,0,1-6.16,5.21,20,20,0,0,0-4.84,4.91c-1.61,2.54-1.35,4.61,1,6.53,1.64,1.34,1.91,2.74.89,4.52-1.28,2.26-2.55,4.53-3.77,6.81a4.16,4.16,0,0,0,.69,5.31c1.64,1.59,3.56,1.32,5.3.15,2.18-1.47,4.26-3.08,7.09-1.59a1,1,0,0,0,.84,0c3.17-2.31,5.54-.22,8.06,1.36s5.24,1.72,7.72-.37c.72-.61,1.51-1.51,2.5-.65.82.72.55,1.76.2,2.69C193.82,405.69,191.93,406.78,187,406.67Z" transform="translate(-10.5 -263.41)"/><path class="cls-5" d="M130.26,320.68c-.16,2.46-.29,4.46,3.07,3.73,1.8-.38,2.1,1.34,1.79,2.49a55.63,55.63,0,0,0-1.67,10.17,3.37,3.37,0,0,1-2.66,3.08c-1.48.36-2.55-.38-3.45-1.53a6.17,6.17,0,0,0-1.7-1.48c-3.36-2-3.93-3.51-2.12-7,1.52-2.95,3.15-5.68,1.14-9.13-.74-1.28.42-2.57,1.54-3.39a2.88,2.88,0,0,1,3.26-.33C130.94,318.17,130.08,319.69,130.26,320.68Z" transform="translate(-10.5 -263.41)"/><path class="cls-1" d="M52.18,372.72a7.8,7.8,0,0,1,1.25-4.09c.89-1.58.93-2.78-.89-3.82s-2-2.66-1.66-4.54c.47-2.88.35-5.46-2.72-7.19A4,4,0,0,1,46.63,348a5.41,5.41,0,0,0-1.4-6.57c-3.78-3.09-2.78-7.06-2.57-10.85a3.62,3.62,0,0,0-.91-3.09c-1.77-1.75-1.92-3.87-1.62-6.15.45-3.46,1.85-4.72,5.23-3.94A8.22,8.22,0,0,0,53.77,315c3.39-3.55,7.34-3.7,12.06-3.51,4.5.17,7.56.64,9.16,5.31.66,1.93,2.71,1.66,4.51.94,3.38-1.34,7.2,1.58,6.41,5.2-.53,2.46.42,3.82,1.92,5.27,1,.93,1.89,1.91,2.83,2.88,1.6,1.64,2.34,3.28.23,5.14-1.18,1.05-.69,2.16,0,3.34,2.41,3.82,1.86,7.46-1,10.87-2.69,3.16-5,6.44-5.33,11-.41,5.38-1.74,6.39-7.07,7.48a16.19,16.19,0,0,0-9,5.23c-2.5,2.77-3.46,2.85-6.25.45-2.18-1.88-3.94-1.34-5.86.27-.87.73-1.89,1.46-3.13.68C52.16,374.88,52.14,373.8,52.18,372.72Zm2.08,1.21c3-2.45,6-3.93,9.13-.88,1.54,1.51,2.58,1.12,3.75-.31A16.48,16.48,0,0,1,76.89,367c4.65-1,5.59-1.55,5.85-6.35s2.77-8.23,5.61-11.56c2.51-2.95,2.89-5.59.63-8.88-1-1.51-1.6-3.17-.25-4.46,1.94-1.85,1.18-3-.43-4.34-.66-.55-1.21-1.24-1.83-1.84-2-1.92-3.56-3.76-2.64-7,.71-2.57-1.44-3.95-4-2.9a5,5,0,0,1-6.23-1.41c-2.69-3.11-4.45-3.78-8.67-4.7-3.76-.82-6.73-.1-9.43,2.63-2.88,2.92-6.35,4.27-10.5,3-1.91-.58-2.67.45-2.92,2.13s-.21,3.46,1.22,4.81,1.55,2.94,1.3,5c-.36,3-.87,6.08,2.05,8.72a7.07,7.07,0,0,1,2,8.41c-.59,1.34-.35,2.7.83,3.31,3.76,1.95,3.78,5.22,3.43,8.7-.12,1.28-.16,2.47,1.25,3.21,2.4,1.25,2.43,3.19,1.43,5.4C54.86,370.32,53.73,371.64,54.26,373.93Z" transform="translate(-10.5 -263.41)"/><path class="cls-6" d="M54.26,373.93c-.53-2.29.6-3.61,1.26-5.06,1-2.21,1-4.15-1.43-5.4-1.41-.74-1.37-1.93-1.25-3.21.35-3.48.33-6.75-3.43-8.7-1.18-.61-1.42-2-.83-3.31a7.07,7.07,0,0,0-2-8.41c-2.92-2.64-2.41-5.72-2.05-8.72.25-2,.16-3.57-1.3-5s-1.49-3-1.22-4.81,1-2.71,2.92-2.13c4.15,1.25,7.62-.1,10.5-3,2.7-2.73,5.67-3.45,9.43-2.63,4.22.92,6,1.59,8.67,4.7a5,5,0,0,0,6.23,1.41c2.61-1.05,4.76.33,4,2.9-.92,3.26.66,5.1,2.64,7,.62.6,1.17,1.29,1.83,1.84,1.61,1.33,2.37,2.49.43,4.34-1.35,1.29-.79,3,.25,4.46,2.26,3.29,1.88,5.93-.63,8.88-2.84,3.33-5.35,6.75-5.61,11.56s-1.2,5.39-5.85,6.35a16.48,16.48,0,0,0-9.75,5.71c-1.17,1.43-2.21,1.82-3.75.31C60.27,370,57.27,371.48,54.26,373.93ZM63.14,319a4.72,4.72,0,0,0-3.78,1.25c-1.35,1.06-2.64,2.43-4.2,3-3.48,1.21-5.56,2.6-5,7,.31,2.59.13,5,1.82,7.24.76,1,1.77,2.09,1.85,3.2.37,5.16,3.12,9.54,4.35,14.33a48.19,48.19,0,0,0,3.16,9c1.16,2.44,2.85,3.11,5.08,1.61a29.25,29.25,0,0,1,8.58-4,3.18,3.18,0,0,0,2.63-3,15,15,0,0,1,4.94-11c1.8-1.68,2.57-3.72.92-6.17a6.06,6.06,0,0,1-1-4.39c.4-2.57-3.93-10.38-6.27-11.4a3,3,0,0,0-.81-.28,9.8,9.8,0,0,1-6.45-4A6.89,6.89,0,0,0,63.14,319Z" transform="translate(-10.5 -263.41)"/><path class="cls-6" d="M279.27,367.42a46.61,46.61,0,0,1,2.54-14.1c2.14-6.66,9.71-8.59,15.14-4.08a15.12,15.12,0,0,1,5.21,10,37,37,0,0,1,.48,6.88c-.12,2.5,1,3.63,3,4.88,2.42,1.45,3.56.88,4.86-1.18a120.88,120.88,0,0,1,10.28-14.54c4.67-5.46,10.36-6.31,15.72-1.57,1.61,1.43,3.15,1.08,3.77-1.17a20.86,20.86,0,0,1,2.6-6.05,2.18,2.18,0,0,0-.2-2.65,15,15,0,0,0-6.27-5.32,12.22,12.22,0,0,1-6.37-15,9.61,9.61,0,0,1,12.28-6.15,15.39,15.39,0,0,0,6.43.83c3.21-.28,6.17,1.2,8.61,3.41,3.4,3.1,6.9,6.11,10.09,9.4,4.87,5,4.43,11.71-.82,16.24a4.41,4.41,0,0,1-1.68,1.07c-4.62,1.08-4.32,2.36-3.69,6.34,1.45,9.24,2.3,18.65,6.08,27.39a15.5,15.5,0,0,1,1.29,6.74,114.94,114.94,0,0,0,.91,15.5c.67,6.81-4.21,12.38-10.64,11.7-4.18-.44-6.26-3.32-8-6.63-.87-1.65-1.06-4.46-2.94-4.51-1.66,0-1.8,2.83-2.77,4.32-1.26,1.91-1.85,4.21-3.6,5.86a8.16,8.16,0,0,1-8.17,2.3,8.85,8.85,0,0,1-6.65-6.53,25.59,25.59,0,0,1-.65-4.55c-.1-1.23-.34-2.6-1.61-2.73s-1.18,1.4-1.58,2.33c-3.42,8-4.23,16.91-8,24.87-1.85,3.94-5.33,6.63-9.31,6.52a9.73,9.73,0,0,1-8.58-7c-1.53-5.23-1.95-10.74-3.89-15.89s-3.44-10.26-6.64-14.88c-3-4.38-4-9.76-4.24-15.08a25.55,25.55,0,0,0-1.91-9.52A16.12,16.12,0,0,1,279.27,367.42Zm27.39,21.38a37.31,37.31,0,0,1-1.43-8.17c-.34-3.57-1.69-5.09-5.13-5.45a3,3,0,0,1-3.1-3.06c-.15-1.53-.32-3.05-.37-4.59-.11-3.06.2-6.15-.55-9.19a7.45,7.45,0,0,0-3.24-4.91c-2.69-1.66-4.9-.89-5.73,2.16-.72,2.69-1.17,5.44-1.72,8.17a15.48,15.48,0,0,0,.7,9.64c1.76,3.81,2,7.78,2.19,11.81A35.27,35.27,0,0,0,289,390c.72,4.16,3.87,7.05,5.38,10.67,3.35,8,6.54,16.22,7.5,25a14.27,14.27,0,0,0,.76,3.06,3.55,3.55,0,0,0,3.51,2.52,3.27,3.27,0,0,0,3.2-2.46c1.9-5.51,4.94-10.7,4.65-16.81a3,3,0,0,1,.8-2.11,14.07,14.07,0,0,0,2.7-6.89,6.48,6.48,0,0,1,1.34-3.43,20.62,20.62,0,0,0,4.33-9,64.06,64.06,0,0,1,5.11-14.05,57,57,0,0,0,4.32-10.36,12.88,12.88,0,0,0,.33-6.55c-.35-1.46-.92-2.78-2.54-3.19a3.88,3.88,0,0,0-4.11,1.47c-.8,1-1.57,1.94-2.31,2.95C317.53,369.61,310.52,378,306.66,388.8Zm56.06,5.79c.41-5.26.41-9.53-2.29-13.36a7.17,7.17,0,0,1-.73-2.76c-1.05-5.64-2.35-11.24-3.35-16.9-.65-3.71-.4-7.46-1.26-11.1-.37-1.59-.89-3-2.63-3.44s-3.08.62-4.18,1.92c-1.75,2.07-2.28,4.61-2.81,7.16-.44,2.08-.75,4.23-3.76,4a2.15,2.15,0,0,0-1.67,1c-2.4,4.7-5.85,9.13-4.1,15,.45,1.52,1.09,3,.57,4.75-1.37,4.61-2.64,9.25-5.18,13.4a6.57,6.57,0,0,0-.7,6.35,17.23,17.23,0,0,1,1.64,8,2.86,2.86,0,0,0,2.54,3,2.77,2.77,0,0,0,3.4-2,20.23,20.23,0,0,1,2.33-4.29c.59-.9,1.38-2,.87-2.92-1.54-2.72-.07-4.5,1.53-6.38a5.21,5.21,0,0,0,1-3.24,10.38,10.38,0,0,1,1.7-4.53c.64-1.12,1.13-1.09,2.2-.36a8.58,8.58,0,0,1,3.42,5.48,69.12,69.12,0,0,0,5.18,14c.83,1.74,2,3.24,4.2,2.68,2-.51,2.9-2.14,3-4.13a33.85,33.85,0,0,0-.22-4C363.18,399.26,362.9,396.49,362.72,394.59Zm-23.23-72c-2.15-.06-4.11,1.94-4.33,4.32-.24,2.7,1.51,6,4.16,6.56,3.11.7,4.89,2.54,6.59,5,2.56,3.72,7.08,5.52,10.2,4.22a4.2,4.2,0,0,1,3.77,0c2.43,1.11,4.32,0,4.93-2.59a4.68,4.68,0,0,0-1.07-4.59c-3.81-3.64-7.65-7.26-11.7-10.62-1.67-1.39-4-1.87-5.61.37-.88,1.2-1.38.49-2-.06A10.09,10.09,0,0,0,339.49,322.55Z" transform="translate(-10.5 -263.41)"/><path class="cls-7" d="M306.66,388.8c3.86-10.79,10.87-19.19,17.33-27.93.74-1,1.51-2,2.31-2.95a3.88,3.88,0,0,1,4.11-1.47c1.62.41,2.19,1.73,2.54,3.19a12.88,12.88,0,0,1-.33,6.55,57,57,0,0,1-4.32,10.36,64.06,64.06,0,0,0-5.11,14.05,20.62,20.62,0,0,1-4.33,9,6.48,6.48,0,0,0-1.34,3.43,14.07,14.07,0,0,1-2.7,6.89A3,3,0,0,0,314,412c.29,6.11-2.75,11.3-4.65,16.81a3.27,3.27,0,0,1-3.2,2.46,3.55,3.55,0,0,1-3.51-2.52,14.27,14.27,0,0,1-.76-3.06c-1-8.8-4.15-17-7.5-25-1.51-3.62-4.66-6.51-5.38-10.67a35.27,35.27,0,0,1-.74-4.82c-.15-4-.43-8-2.19-11.81a15.48,15.48,0,0,1-.7-9.64c.55-2.73,1-5.48,1.72-8.17.83-3,3-3.82,5.73-2.16a7.45,7.45,0,0,1,3.24,4.91c.75,3,.44,6.13.55,9.19.05,1.54.22,3.06.37,4.59a3,3,0,0,0,3.1,3.06c3.44.36,4.79,1.88,5.13,5.45A37.31,37.31,0,0,0,306.66,388.8Zm-12.42-23.53h.11c0-.77,0-1.54,0-2.3-.11-2.5,0-5.06-2-7-1.73-1.71-2.79-1.46-3.37.85-.48,2-.8,4-1.23,5.92-.73,3.34-1.09,6.74.33,9.92a28.49,28.49,0,0,1,2.2,11.22c.1,4.07.72,8.21,3.22,11.47,3.26,4.23,4.82,9.14,6.46,14,1.9,5.64,3.81,11.3,4.24,17.32.08,1,.45,2.24,1.73,2.38s1.42-1.13,1.73-2c1.93-5.21,4.49-10.24,4.34-16a3.87,3.87,0,0,1,.63-1.88c3-5.08,5.1-10.7,7.13-16.06,3.2-8.43,6.27-16.9,9.94-25.15a12.38,12.38,0,0,0,1.28-6.73c-.13-1-.16-2.36-1.33-2.67s-1.72.95-2.45,1.68c-4.85,4.91-7.65,11.29-11.89,16.6a29.74,29.74,0,0,0-6.51,14.52c-.14,1,0,2.43-1.31,2.59s-1.68-1.36-2.16-2.33c-1.71-3.43-1.89-7.22-2.38-10.92-.22-1.64-.72-3-2.59-3.36-4.77-1-5.11-1.38-5.75-6.32C294.41,369.11,294.37,367.19,294.24,365.27Z" transform="translate(-10.5 -263.41)"/><path class="cls-7" d="M362.72,394.59c.18,1.9.46,4.67.71,7.44a33.85,33.85,0,0,1,.22,4c-.07,2-.95,3.62-3,4.13-2.2.56-3.37-.94-4.2-2.68a69.12,69.12,0,0,1-5.18-14,8.58,8.58,0,0,0-3.42-5.48c-1.07-.73-1.56-.76-2.2.36a10.38,10.38,0,0,0-1.7,4.53,5.21,5.21,0,0,1-1,3.24c-1.6,1.88-3.07,3.66-1.53,6.38.51.9-.28,2-.87,2.92a20.23,20.23,0,0,0-2.33,4.29,2.77,2.77,0,0,1-3.4,2,2.86,2.86,0,0,1-2.54-3,17.23,17.23,0,0,0-1.64-8,6.57,6.57,0,0,1,.7-6.35c2.54-4.15,3.81-8.79,5.18-13.4.52-1.74-.12-3.23-.57-4.75-1.75-5.88,1.7-10.31,4.1-15a2.15,2.15,0,0,1,1.67-1c3,.23,3.32-1.92,3.76-4,.53-2.55,1.06-5.09,2.81-7.16,1.1-1.3,2.32-2.39,4.18-1.92s2.26,1.85,2.63,3.44c.86,3.64.61,7.39,1.26,11.1,1,5.66,2.3,11.26,3.35,16.9a7.17,7.17,0,0,0,.73,2.76C363.13,385.06,363.13,389.33,362.72,394.59Zm-2.07-1.65c0-2.77.61-5.71-.81-8.22-2.81-5-3.45-10.56-4.41-16-1-5.62-2.65-11.21-2.34-17,.05-1-.07-2.34-1.36-2.55-1.05-.16-1.58.92-2.15,1.7-1.35,1.85-1.67,4.06-2.13,6.21-.59,2.81-1.36,5.31-5,5.17a1.23,1.23,0,0,0-1,.52c-1.77,3.84-4.6,7.39-3.59,12.05.47,2.15,1.34,4.27.69,6.51-1.37,4.7-2.54,9.47-5.23,13.66a4.86,4.86,0,0,0-.91,4.1c.91,3,2.59,5.78,1.88,9.12a1.07,1.07,0,0,0,1,1.23c.56.06.84-.39,1-.85,1-2.81,4-5.09,2.29-8.68a1.83,1.83,0,0,1,.28-1.64c2.51-2.74,2.83-6.41,4.21-9.62a12.61,12.61,0,0,1,1.86-2.89c1-1.23,2-1.26,3.45-.24a13.12,13.12,0,0,1,5.24,8.3,61.62,61.62,0,0,0,4.76,12.6c.35.76.72,1.76,1.84,1.43a2,2,0,0,0,1.37-2,14.74,14.74,0,0,0-.2-2.28C361,400,360.39,396.52,360.65,392.94Z" transform="translate(-10.5 -263.41)"/><path class="cls-7" d="M339.49,322.55a10.09,10.09,0,0,1,4.92,2.68c.64.55,1.14,1.26,2,.06,1.64-2.24,3.94-1.76,5.61-.37,4,3.36,7.89,7,11.7,10.62a4.68,4.68,0,0,1,1.07,4.59c-.61,2.62-2.5,3.7-4.93,2.59a4.2,4.2,0,0,0-3.77,0c-3.12,1.3-7.64-.5-10.2-4.22-1.7-2.49-3.48-4.33-6.59-5-2.65-.59-4.4-3.86-4.16-6.56C335.38,324.49,337.34,322.49,339.49,322.55Zm-.07,2.23a2.19,2.19,0,0,0-2,2.13c-.19,2.28.77,4.16,3,4.63,3.3.71,5.26,2.68,7,5.38,2.26,3.46,5.25,4.26,9.34,3a4.07,4.07,0,0,1,3.06.35c.82.39,1.68,1.16,2.5,0a2.4,2.4,0,0,0-.09-2.95,10.69,10.69,0,0,0-2.1-2.34,43.69,43.69,0,0,1-7.65-6.92A9.52,9.52,0,0,0,350,326.3c-.63-.38-1.46-.43-1.72.35-1.3,3.83-3.19,1.77-4.94.52C342.06,326.28,341.06,325.05,339.42,324.78Z" transform="translate(-10.5 -263.41)"/><path class="cls-2" d="M294.24,365.27c.13,1.92.17,3.84.42,5.74.64,4.94,1,5.3,5.75,6.32,1.87.4,2.37,1.72,2.59,3.36.49,3.7.67,7.49,2.38,10.92.48,1,.71,2.52,2.16,2.33s1.17-1.61,1.31-2.59a29.74,29.74,0,0,1,6.51-14.52c4.24-5.31,7-11.69,11.89-16.6.73-.73,1.24-2,2.45-1.68s1.2,1.67,1.33,2.67a12.38,12.38,0,0,1-1.28,6.73c-3.67,8.25-6.74,16.72-9.94,25.15-2,5.36-4.13,11-7.13,16.06a3.87,3.87,0,0,0-.63,1.88c.15,5.78-2.41,10.81-4.34,16-.31.83-.46,2.1-1.73,2s-1.65-1.37-1.73-2.38c-.43-6-2.34-11.68-4.24-17.32-1.64-4.87-3.2-9.78-6.46-14-2.5-3.26-3.12-7.4-3.22-11.47a28.49,28.49,0,0,0-2.2-11.22c-1.42-3.18-1.06-6.58-.33-9.92.43-2,.75-4,1.23-5.92.58-2.31,1.64-2.56,3.37-.85,2,2,1.84,4.53,2,7,0,.76,0,1.53,0,2.3Z" transform="translate(-10.5 -263.41)"/><path class="cls-5" d="M360.65,392.94c-.26,3.58.38,7.09.77,10.61a14.74,14.74,0,0,1,.2,2.28,2,2,0,0,1-1.37,2c-1.12.33-1.49-.67-1.84-1.43a61.62,61.62,0,0,1-4.76-12.6,13.12,13.12,0,0,0-5.24-8.3c-1.43-1-2.44-1-3.45.24a12.61,12.61,0,0,0-1.86,2.89c-1.38,3.21-1.7,6.88-4.21,9.62a1.83,1.83,0,0,0-.28,1.64c1.75,3.59-1.28,5.87-2.29,8.68-.17.46-.45.91-1,.85a1.07,1.07,0,0,1-1-1.23c.71-3.34-1-6.13-1.88-9.12a4.86,4.86,0,0,1,.91-4.1c2.69-4.19,3.86-9,5.23-13.66.65-2.24-.22-4.36-.69-6.51-1-4.66,1.82-8.21,3.59-12.05a1.23,1.23,0,0,1,1-.52c3.62.14,4.39-2.36,5-5.17.46-2.15.78-4.36,2.13-6.21.57-.78,1.1-1.86,2.15-1.7,1.29.21,1.41,1.54,1.36,2.55-.31,5.84,1.34,11.43,2.34,17,1,5.39,1.6,11,4.41,16C361.26,387.23,360.63,390.17,360.65,392.94Zm-9.21-23a17.44,17.44,0,0,0-.21-3.22,3,3,0,0,0-2.69-2.64c-1.7-.14-2,1.26-2.35,2.44a32.44,32.44,0,0,1-2.36,5.87,10.62,10.62,0,0,0-1.25,4.41c-.11,2.06.45,3.28,2.82,2.43a3,3,0,0,1,2.7.37c2.67,1.51,3.87.73,4-2.32C352.19,374.82,350.77,372.57,351.44,369.9Z" transform="translate(-10.5 -263.41)"/><path class="cls-5" d="M339.42,324.78c1.64.27,2.64,1.5,3.88,2.39,1.75,1.25,3.64,3.31,4.94-.52.26-.78,1.09-.73,1.72-.35a9.52,9.52,0,0,1,2.58,1.77,43.69,43.69,0,0,0,7.65,6.92,10.69,10.69,0,0,1,2.1,2.34,2.4,2.4,0,0,1,.09,2.95c-.82,1.18-1.68.41-2.5,0a4.07,4.07,0,0,0-3.06-.35c-4.09,1.23-7.08.43-9.34-3-1.77-2.7-3.73-4.67-7-5.38-2.22-.47-3.18-2.35-3-4.63A2.19,2.19,0,0,1,339.42,324.78Z" transform="translate(-10.5 -263.41)"/><path class="cls-7" d="M351.44,369.9c-.67,2.67.75,4.92.65,7.34-.12,3.05-1.32,3.83-4,2.32a3,3,0,0,0-2.7-.37c-2.37.85-2.93-.37-2.82-2.43a10.62,10.62,0,0,1,1.25-4.41,32.44,32.44,0,0,0,2.36-5.87c.35-1.18.65-2.58,2.35-2.44a3,3,0,0,1,2.69,2.64A17.44,17.44,0,0,1,351.44,369.9Zm-2.65-3.27c-.92,3.64-3.52,6.48-4.22,10.58,2.1-1.11,3.67-.21,5.78.92A42.45,42.45,0,0,1,348.79,366.63Z" transform="translate(-10.5 -263.41)"/><path class="cls-3" d="M348.79,366.63a42.45,42.45,0,0,0,1.56,11.5c-2.11-1.13-3.68-2-5.78-.92C345.27,373.11,347.87,370.27,348.79,366.63Z" transform="translate(-10.5 -263.41)"/><path class="cls-7" d="M583.32,353.57c.72,0,1.1,0,1.48,0,1.61.06,3.53-.31,4.29,1.56.85,2.1-1.13,2.86-2.41,3.69-2.31,1.48-2.28,3.46-1.79,5.78a9.77,9.77,0,0,1-4.65,10.84c-2.17,1.38-3.83,1.08-5-1.21a20.76,20.76,0,0,0-4-5.19c-2.44-2.44-1.91-5.52,1.24-7a5.44,5.44,0,0,0,2.68-3.18C576.74,355.11,579.34,353,583.32,353.57Zm3.88,2.76c-6.37-1.3-8.53-1.32-10.88,4.68a4.92,4.92,0,0,1-2.82,2.69c-2,.9-2.26,2.39-.79,4.05a35,35,0,0,1,3,3.43c2.46,3.65,3.27,3.68,6,.05A6.48,6.48,0,0,0,583,365c-1-3.39-.48-6.25,3-8Z" transform="translate(-10.5 -263.41)"/><path class="cls-1" d="M579.59,367c-.1.66.09,1.68-.81,1.5a2.31,2.31,0,0,1-1.69-2c-.05-.84.89-1.81,1.52-1.73C579.76,364.86,579.3,366.2,579.59,367Z" transform="translate(-10.5 -263.41)"/><path class="cls-8" d="M614.5,386.86c-3,.63-4.51-.34-6.12-1.19-2-1.07-4-2.09-6.47-2.06-2.11,0-4.11-1-4-3.6.09-2.4,2-3.15,4.05-3.21a5.44,5.44,0,0,0,3.44-1.18,5.35,5.35,0,0,1,3.77-1.26c3.1.27,3.58-1.5,3.28-3.95a12.27,12.27,0,0,1,1.43-7.81,2.77,2.77,0,0,0,.54-1.32c-.3-5,2.23-9.53,2.78-14.28.62-5.32,3-9.65,5.22-14.17.61-1.2,1.24-2.38,1.78-3.61a7.5,7.5,0,0,1,3.25-3.91c1.74-.9,3.55-1.15,5.17.11s1.34,3,.75,4.75c-1,3-2.86,5.66-4.52,8.35-1,1.66-1.33,3.06.47,4.51,2.38,1.92,2.45,4.83,1.43,7.17-1.88,4.31-2,9-3.36,13.36-.85,2.75-1.72,5.5-2.69,8.21-1.35,3.78-1.21,4,2.67,3.39a22.22,22.22,0,0,1,3.74-.2c.64,0,1.67.17,1.85.57,1.24,2.76,3.61,1.56,5.62,2,4.88,1.07,9.32,3.51,13.77,5.69,2.59,1.27,2.19,3.72-.37,5.44-.69.46-1.58.6-1.4,1.84.32,2.24-1.27,2.77-3,2.95a6.12,6.12,0,0,1-4.19-.8c-3.14-2.31-6.57-2.56-10.25-2.22a7.31,7.31,0,0,1-6-2.34,2.2,2.2,0,0,0-2.32-.82c-1.06.4-.83,1.45-.72,2.26.54,4.06.73,8.06-1.18,11.86,2,6.34-1.63,11.89-2.46,17.84s-.53,12.11-2.25,18a79.64,79.64,0,0,0-2.46,8.29c-.2,1.1-.59,2.29-2.1,2.39s-2.1-.84-2.59-1.91c-2-4.53-1.56-9.25-.65-13.89.69-3.58,1.62-7.1,1.38-10.81a15.75,15.75,0,0,0-.81-4.8c-1.17-3,.11-5.75.64-8.67s-2.77-5.51-1.47-8.53C611.78,395.41,611,390.9,614.5,386.86Zm-1.16,58.54c4.23-9.15,4.48-18.79,5.29-28.32a9.05,9.05,0,0,1,1.33-4.36,9.36,9.36,0,0,0,1.29-7.17c-.3-1.6-.83-3.36-.14-4.84,1.7-3.6,1.32-7.29,1-11-.11-1.52-.29-3.23,1.41-4.07a4.09,4.09,0,0,1,4.78,1c2.37,2.19,5.2,2.3,8.07,1.76a5.65,5.65,0,0,1,4.87,1,11.11,11.11,0,0,0,5.57,2.17c.64.07,2,0,1.42-.95-1.4-2.12.1-2.42,1.42-3.06.83-.4,2-.59,2-1.77s-1.24-1.57-2.14-2.07a7.18,7.18,0,0,0-3.35-.75,4.23,4.23,0,0,1-3.11-1.28c-2.56-2.7-5.47-2.83-8.65-1.24-1.44.72-2.53.73-2.19-1.38s-.92-2.32-2.42-2.22-3.05.45-4.57.5c-2.92.11-3.93-1.09-3.13-3.9S624,367.78,625,365c1.69-5,1.6-10.42,3.89-15.3a4.5,4.5,0,0,0-.82-5.11c-2.75-3-2.78-3.9-.74-7.32,1.58-2.63,3.38-5.15,4.31-8.13a1.76,1.76,0,0,0-.36-2.1,2,2,0,0,0-2.17-.28A5.29,5.29,0,0,0,626,330c-.52,1.35-1.31,2.58-1.85,3.88-1.46,3.52-4.44,6.4-4.53,10.47-.14,5.88-4.09,11-3.24,17.11a3.23,3.23,0,0,1-.58,1.61,12.09,12.09,0,0,0-1.35,7.78c.53,3.41-1.11,5.17-4.56,5.39a5.7,5.7,0,0,0-3.51,1.12,6.34,6.34,0,0,1-4.23,1.54c-.95,0-2.21,0-2.2,1.28s1.35,1.69,2.35,1.61c3-.26,5.35,1.25,7.76,2.63a3.37,3.37,0,0,0,3,.51c2.22-.72,3.13,1,2.56,2.5-1.29,3.41-1.77,7-2.88,10.41-.78,2.42-1.05,4.39.12,6.55a5.75,5.75,0,0,1,.08,6,6,6,0,0,0-.36,4.79c1.76,5.31,1.39,10.57,0,15.86a33.09,33.09,0,0,0-.74,10.59C611.89,443,612,444.46,613.34,445.4Z" transform="translate(-10.5 -263.41)"/><path class="cls-7" d="M684.11,386.36c4.87-5,11.29-5.15,16.71-7.57a63,63,0,0,0,16-9.81c4.23-3.72,9.38-5.15,14.1-7.63a2.73,2.73,0,0,1,3.53,1.19c.92,1.33,0,2.42-.9,3.27-5.63,5.07-11,10.36-17.58,14.4-5,3.05-9.49,6.81-14.77,9.4a4,4,0,0,0-2.07,2.31c-1.95,5.84-6.51,8.91-12,10.76-5.18,1.75-9.2,4.64-11.58,9.66a11.62,11.62,0,0,1-4.16,4.31c-4,2.74-7.91,5.47-11.83,8.25a10.18,10.18,0,0,0-4.49,6.78,7.89,7.89,0,0,1-2.48,4.14c-3.88,4.05-7.36,8.37-9.52,13.63a3.76,3.76,0,0,1-1.15,1.63c-5.67,3.93-9.29,10-14.75,14.14-1.64,1.24-3.32,2.56-5.34,2.66-9,.46-15.25,5.68-21.17,11.6a7.83,7.83,0,0,1-3.34,2.19,3.29,3.29,0,0,1-3.49-.69,3.14,3.14,0,0,1-.6-3.5,10,10,0,0,1,2.55-4.14c5.17-4.58,10-9.62,16.46-12.51a11.58,11.58,0,0,0,6.19-5.74,6.25,6.25,0,0,1,2.07-2.72c5-3,7.35-8.7,12.28-11.76a21,21,0,0,0,3.08-3c1.46-1.42,2-2.81.59-4.71-1.58-2.05-1.11-4.12.47-6.05a29.54,29.54,0,0,1,8.48-6.85c1.17-.65,2.1-1,.72-2.61s-.29-3.6,2.3-4.6c3.13-1.21,6.33-2.29,9.56-3.2,2.47-.7,3.49-2,2.9-4.56a12.43,12.43,0,0,1,.89-7.33,70.08,70.08,0,0,0,3.53-11.87c.2-1.07.41-1.87-1.2-2.25-2.09-.5-3.06-2.3-3-4.4a31,31,0,0,0-2.94-13.69,17.1,17.1,0,0,1-1.26-6.47c-.34-6,.35-12.11-1.38-18a14.23,14.23,0,0,1,0-5.74c.07-.57.06-1.35.41-1.64,4.08-3.38,2-7.84,2.13-11.89,0-1.62-.48-3.24-.49-4.86,0-1.13.24-2.38,1.66-2.73s2.19.59,2.74,1.63c3.07,5.88,5.9,11.89,7.12,18.47.82,4.4,3,8.28,4.26,12.51a1.8,1.8,0,0,0,.67.93c4.09,2.77,4.18,7.06,4.3,11.33a29.65,29.65,0,0,1,0,4.32c-.69,5.65,1.51,10.37,4.64,14.77C684.7,380.47,685.13,383,684.11,386.36ZM660,316.94a112.63,112.63,0,0,1,.24,13.74c0,1.14.18,2.64-1,3.08-2,.72-1.88,2.28-1.76,3.75.52,6.2,1.55,12.34,1.53,18.6,0,3-.14,6.17,1.26,9.07a30.5,30.5,0,0,1,3,13.68c0,1.48.46,2.81,2.15,2.88,2.42.1,2.53,1.36,2.18,3.3a71.48,71.48,0,0,1-3.68,13,11.51,11.51,0,0,0-1,6.17c.84,5,.59,5.45-4.2,7.17-3.07,1.11-6.21,2-9.27,3.17-.87.33-2.7.78-.72,2.27,2.46,1.85,2.46,2.12-.16,3.64-3.5,2-6.91,4.18-9.61,7.28-1.13,1.3-1.71,2.68-.58,4.15,2.11,2.75,1.12,5-.94,7.14a24.61,24.61,0,0,1-4,3.75c-4.74,3.07-6.81,8.87-12,11.53-.67.34-1.09,1.33-1.45,2.11a11.47,11.47,0,0,1-6.12,5.83c-6.39,2.82-11.2,7.74-16.31,12.24a10,10,0,0,0-1.82,2.56c-.46.8-1.19,1.77-.12,2.57s1.88,0,2.59-.59a70,70,0,0,0,5.82-5.17,21.31,21.31,0,0,1,13.52-7c4.85-.51,8.61-2.85,12-6.26s6.23-7.59,10.46-10.27a5.29,5.29,0,0,0,1.68-2.29,40.07,40.07,0,0,1,8-11.87,13.29,13.29,0,0,0,4.1-6.78,8.56,8.56,0,0,1,3.55-5.11c4-2.87,8-5.68,12-8.55,1.55-1.11,3.43-2,4.26-3.81,2.87-6.24,8-9.49,14.27-11.63,4.5-1.52,8.09-4.43,9.58-9.28a5.27,5.27,0,0,1,2.84-3.12c5-2.55,9.37-6,14-8.95a98.66,98.66,0,0,0,14.87-11.77c1.14-1.08,2.7-1.83,3.29-3.42a1.49,1.49,0,0,0-2-.15c-4.62,2.46-9.93,3.74-13.48,8.08-.81,1-2.19,1.53-3.29,2.3a61.29,61.29,0,0,1-17.37,8.66c-5.11,1.55-9.64,3.34-12.75,7.91-.58.85-1.9,1.84-3,1-1.34-1,.09-2,.49-3,1.29-3.11,2.9-6.16.3-9.44a21.33,21.33,0,0,1-4.94-15.88,26.29,26.29,0,0,0-.11-6.33c-.28-2,.07-4.35-1.66-6-4.7-4.4-5.81-10.45-7.3-16.25A63.75,63.75,0,0,0,660,316.94Z" transform="translate(-10.5 -263.41)"/><path class="cls-2" d="M660,316.94a63.75,63.75,0,0,1,7.4,17.79c1.49,5.8,2.6,11.85,7.3,16.25,1.73,1.62,1.38,3.94,1.66,6a26.29,26.29,0,0,1,.11,6.33,21.33,21.33,0,0,0,4.94,15.88c2.6,3.28,1,6.33-.3,9.44-.4,1-1.83,2-.49,3,1.11.8,2.43-.19,3-1,3.11-4.57,7.64-6.36,12.75-7.91A61.29,61.29,0,0,0,713.7,374c1.1-.77,2.48-1.31,3.29-2.3,3.55-4.34,8.86-5.62,13.48-8.08a1.49,1.49,0,0,1,2,.15c-.59,1.59-2.15,2.34-3.29,3.42a98.66,98.66,0,0,1-14.87,11.77c-4.67,3-9.07,6.4-14,8.95A5.27,5.27,0,0,0,697.4,391c-1.49,4.85-5.08,7.76-9.58,9.28-6.3,2.14-11.4,5.39-14.27,11.63-.83,1.81-2.71,2.7-4.26,3.81-4,2.87-8,5.68-12,8.55a8.56,8.56,0,0,0-3.55,5.11,13.29,13.29,0,0,1-4.1,6.78,40.07,40.07,0,0,0-8,11.87,5.29,5.29,0,0,1-1.68,2.29c-4.23,2.68-7,6.79-10.46,10.27s-7.13,5.75-12,6.26a21.31,21.31,0,0,0-13.52,7,70,70,0,0,1-5.82,5.17c-.71.59-1.63,1.3-2.59.59s-.34-1.77.12-2.57a10,10,0,0,1,1.82-2.56c5.11-4.5,9.92-9.42,16.31-12.24a11.47,11.47,0,0,0,6.12-5.83c.36-.78.78-1.77,1.45-2.11,5.14-2.66,7.21-8.46,12-11.53a24.61,24.61,0,0,0,4-3.75c2.06-2.13,3.05-4.39.94-7.14-1.13-1.47-.55-2.85.58-4.15,2.7-3.1,6.11-5.23,9.61-7.28,2.62-1.52,2.62-1.79.16-3.64-2-1.49-.15-1.94.72-2.27,3.06-1.15,6.2-2.06,9.27-3.17,4.79-1.72,5-2.12,4.2-7.17a11.51,11.51,0,0,1,1-6.17,71.48,71.48,0,0,0,3.68-13c.35-1.94.24-3.2-2.18-3.3-1.69-.07-2.15-1.4-2.15-2.88a30.5,30.5,0,0,0-3-13.68c-1.4-2.9-1.28-6-1.26-9.07,0-6.26-1-12.4-1.53-18.6-.12-1.47-.29-3,1.76-3.75,1.22-.44,1-1.94,1-3.08A112.63,112.63,0,0,0,660,316.94Z" transform="translate(-10.5 -263.41)"/><path class="cls-5" d="M613.34,445.4c-1.34-.94-1.45-2.4-1.54-3.81a33.09,33.09,0,0,1,.74-10.59c1.39-5.29,1.76-10.55,0-15.86a6,6,0,0,1,.36-4.79,5.75,5.75,0,0,0-.08-6c-1.17-2.16-.9-4.13-.12-6.55,1.11-3.4,1.59-7,2.88-10.41.57-1.51-.34-3.22-2.56-2.5a3.37,3.37,0,0,1-3-.51c-2.41-1.38-4.75-2.89-7.76-2.63-1,.08-2.34-.32-2.35-1.61s1.25-1.26,2.2-1.28a6.34,6.34,0,0,0,4.23-1.54,5.7,5.7,0,0,1,3.51-1.12c3.45-.22,5.09-2,4.56-5.39a12.09,12.09,0,0,1,1.35-7.78,3.23,3.23,0,0,0,.58-1.61c-.85-6.07,3.1-11.23,3.24-17.11.09-4.07,3.07-6.95,4.53-10.47.54-1.3,1.33-2.53,1.85-3.88a5.29,5.29,0,0,1,3.11-3.23,2,2,0,0,1,2.17.28,1.76,1.76,0,0,1,.36,2.1c-.93,3-2.73,5.5-4.31,8.13-2,3.42-2,4.34.74,7.32a4.5,4.5,0,0,1,.82,5.11c-2.29,4.88-2.2,10.31-3.89,15.3-1,2.81-2,5.6-2.83,8.46s.21,4,3.13,3.9c1.52-.05,3-.4,4.57-.5s2.75.22,2.42,2.22.75,2.1,2.19,1.38c3.18-1.59,6.09-1.46,8.65,1.24a4.23,4.23,0,0,0,3.11,1.28,7.18,7.18,0,0,1,3.35.75c.9.5,2.14.79,2.14,2.07s-1.2,1.37-2,1.77c-1.32.64-2.82.94-1.42,3.06.62.94-.78,1-1.42.95a11.11,11.11,0,0,1-5.57-2.17,5.65,5.65,0,0,0-4.87-1c-2.87.54-5.7.43-8.07-1.76a4.09,4.09,0,0,0-4.78-1c-1.7.84-1.52,2.55-1.41,4.07.28,3.74.66,7.43-1,11-.69,1.48-.16,3.24.14,4.84a9.36,9.36,0,0,1-1.29,7.17,9.05,9.05,0,0,0-1.33,4.36C617.82,426.61,617.57,436.25,613.34,445.4Z" transform="translate(-10.5 -263.41)"/><path class="cls-8" d="M475.61,342.25c-1.51,5.21-3.47,10.29-2.36,15.56a18.33,18.33,0,0,1-4.31,16.38,17.16,17.16,0,0,0-4.24,12.71,20.91,20.91,0,0,1-2.76,11.89c-2.58,4.43-2.61,9.37-2.49,14.31.06,2.41.27,5-2.83,5.88-2.35.65-4.67-1.11-5.9-4.4a23.52,23.52,0,0,1-1.29-7.94,3.12,3.12,0,0,0-2.53-3.34c-4.25-1.24-5.71-3.15-5.34-7.54a41.66,41.66,0,0,0-4-21.12c-1.68-3.67-1.59-7.69-2.3-11.55-.39-2.12-1.17-3.82-3.11-4.9a4,4,0,0,1-2.23-2.86,6,6,0,0,0-2.27-3.56,8.29,8.29,0,0,1-2.89-7.48c.26-2.91.92-5.85-.06-9.49-2.5,4.5-3.24,8.92-4.41,13.18a15.17,15.17,0,0,0,.18,8.55,22.68,22.68,0,0,1,.24,12c-2,8.43-2.29,17.15-4.25,25.59-.62,2.68.16,5.37.36,8a8.64,8.64,0,0,1-3,7.41c-4.12,3.91-6.28,8.52-4.67,14.49,1.45,5.39,1.59,10.73-1.18,16-1.26,2.4-1.61,5.32-2.12,8.05a15.16,15.16,0,0,1-1.77,4.83c-.69,1.2-1.37,2.44-3,2.19a3.44,3.44,0,0,1-2.77-3,35.5,35.5,0,0,1-.43-10.64c.24-3.46.62-6.87-.88-10.2-.71-1.56-.24-3.22.18-4.81a24.26,24.26,0,0,0-.9-15.25c-2.61-7-2.35-13.87,2.9-19.75,5.06-5.68,6.12-12.42,4.84-19.43a51.2,51.2,0,0,1,2.43-28,70,70,0,0,0,4.86-21.58,20.38,20.38,0,0,1,2.54-8.5c.8-1.54,1.51-3.8,3.88-3.07s.95,2.83.86,4.45c3.92-2.27,4.19-2.14,5.44,2.4,1.1-.39.79-1.42.93-2.17a12.11,12.11,0,0,1,3.19-6.67,11.29,11.29,0,0,0,3.32-7.46c.49-5.48,4.18-9.15,7.31-13.13.92-1.17,2.28-1,3.44-.34a3.52,3.52,0,0,1,1.94,3.86,46.66,46.66,0,0,1-2.92,9.94,36.88,36.88,0,0,0-2.57,12.36,4.06,4.06,0,0,0,1.59,3.78,6.3,6.3,0,0,1,2.58,6.06c-.14,1.92-.21,3.84-.36,5.76a7.37,7.37,0,0,0,1.47,5.67c1.68,2,1.19,4.57,1.11,6.95-.06,1.57-.17,2.91,1.54,3.93s1.82,2.92,1.64,4.67c-.83,7.63.15,15.17.91,22.73a8.49,8.49,0,0,0,.5,2.53c.89,2.08,2,4.09,1.5,6.55a38.64,38.64,0,0,0,2.46-15.26,59.65,59.65,0,0,1,1.54-15.73c1.31-5.13,3-9.89,7-13.6a9.22,9.22,0,0,0,2.37-4.85c1.69-6.9,3.46-13.77,5.25-20.64a22,22,0,0,1,4.76-9.44A23.58,23.58,0,0,0,480.56,288a10.17,10.17,0,0,1,2.91-6.71,32.5,32.5,0,0,0,6-8.76c1.36-3.08,3.92-4.54,5.72-3.81,2,.8,2.71,4,1.44,7.21-1.89,4.73-4.09,9.34-5.86,14.12-3.11,8.37-4.16,17-1.71,25.73a67.16,67.16,0,0,1,2.71,21.08,14.94,14.94,0,0,0,1.33,7,24.4,24.4,0,0,1,2,10.37c0,2.73.61,5.46.28,8.25a3.07,3.07,0,0,0,.8,2.39c3,2.51,2.36,5.71,1.67,8.79a17.93,17.93,0,0,0,0,8.21c1,4.28-.08,8.48-2.15,12.26-1.86,3.39-2,6.67-.05,9.85a15.57,15.57,0,0,1,1.8,11.1,6.66,6.66,0,0,0,1.81,6.11,8.93,8.93,0,0,1,2.15,9.37,13.25,13.25,0,0,0,2.28,13c1.72,2.2,2,4.91,2.13,7.66a35.84,35.84,0,0,0,1,5.67c.3,1.43.3,2.79-1.21,3.47a2.38,2.38,0,0,1-3.34-1.36c-.55-1.17-1-1.13-2.1-.59-1.82.89-3-.15-3.25-2a13.85,13.85,0,0,1,.29-4.3c.47-2.25.07-4-2.17-5-4.14-1.92-5.62-5.27-5.14-9.66.17-1.55-.11-2.68-1.77-3.45-2.34-1.08-2.77-3.39-2.51-5.68a60.13,60.13,0,0,1,1.38-7.63,5,5,0,0,0-1-4.82,26.53,26.53,0,0,1-6.36-18.65A38.34,38.34,0,0,0,478,383.59a20.25,20.25,0,0,1,.49-14.4c1.3-3.08,2-6.41,3-9.62a3.69,3.69,0,0,0-.74-4C476.87,352,474.29,348,475.61,342.25Zm-59.05-28.57c-2.58,2.89-3.17,6.45-3.46,10.12a25.1,25.1,0,0,1-.34,4c-1.72,6.9-3.07,13.91-5.67,20.56a35.81,35.81,0,0,0-1.61,19.84c1.68,9.33,1.17,18.09-5.65,25.7-4.23,4.71-3.91,10.67-1.93,16.12a27.8,27.8,0,0,1,1,17.22,6.35,6.35,0,0,0,.09,4.26,15.08,15.08,0,0,1,.93,7.07c-.13,3.27-.21,6.54-.14,9.81,0,1.55-.43,4.08,1.33,4.24s2.21-2.37,2.55-4c.68-3.2,1-6.59,2.44-9.46,2.52-4.92,2.41-9.9,1-14.88-1.79-6.48.6-11.61,4.94-15.9,2.36-2.34,3.18-4.67,2.59-7.71a17.6,17.6,0,0,1-.2-7.18c1.8-7.69,2.18-15.6,3.8-23.31.87-4.15,1.75-8.25.44-12.52-2.51-8.16.95-15.47,3.6-22.86a2.49,2.49,0,0,1,2.59-1.94c1.53.2,2,1.52,2,2.78a58.12,58.12,0,0,1-.22,8.35,6.92,6.92,0,0,0,2.17,6.22c2.73,2.74,3.77,6.81,7.18,9.08.56.37.67,1.56.8,2.4.88,6,1.8,12,4.66,17.45a13.19,13.19,0,0,1,.95,3.9c.77,4.69,1.91,9.33,1.21,14.17-.25,1.67.4,3.46,2.35,3.8,4.11.72,5.46,3.1,5.45,7.1,0,2.72.37,5.61,2.33,7.88a2.19,2.19,0,0,0,2.23,1,2.07,2.07,0,0,0,1.48-2.22c0-1.73.1-3.47,0-5.2a23,23,0,0,1,3-12.47,16.54,16.54,0,0,0,2.23-9.39c-.45-5.85,1-10.89,5.07-15.36,2.76-3,4.69-7.13,3.84-11.13-1.41-6.65.09-12.79,1.56-19a15.23,15.23,0,0,1,1.45-3.44c.35-.67.92-1.31,1.84-1a1.59,1.59,0,0,1,1,1.63q.17,3.74.18,7.49a4.76,4.76,0,0,0,1.66,4.11c4.44,3.46,5,7.53,3,12.77-2.53,6.51-4.93,13.31-2.13,20.41a25,25,0,0,1,1.49,11.62,24.83,24.83,0,0,0,5.93,19,6.45,6.45,0,0,1,1.19,6.72,27.66,27.66,0,0,0-1.23,7.36c-.07,1.68.37,3.1,2.05,3.76a3.23,3.23,0,0,1,2.17,3.89c-.61,4.31.88,7.5,4.91,9.41,2.09,1,2.7,2.74,2.58,5-.1,1.74-.85,3.49-.38,5.45,3-2.87,3-2.87,4.72.93.22.48.35,1.14,1.29,1-.2-1.3-.34-2.62-.61-3.91-.74-3.53-.19-7.39-2.69-10.46-3.28-4-3.68-8.56-2.23-13.35a8.17,8.17,0,0,0-1.93-8.52,7.9,7.9,0,0,1-2-7.22,13.26,13.26,0,0,0-1.37-9.46,11.54,11.54,0,0,1-.2-12.07c1.89-3.39,3-7.23,2-11.11a18.05,18.05,0,0,1,.07-9.09c.65-2.59.94-5.08-1.41-7.14a3.61,3.61,0,0,1-1.07-2.92c.21-3.17-.43-6.3-.44-9.44a20,20,0,0,0-1.64-8.7,17,17,0,0,1-1.54-7.84,62.88,62.88,0,0,0-2.33-19.39c-3.13-10.85-1.81-21.28,2.68-31.47,1.59-3.61,3.09-7.25,4.55-10.91.61-1.53,1.29-3.73-.37-4.43s-2.77,1.44-3.33,2.86a30.19,30.19,0,0,1-6.18,9,8.92,8.92,0,0,0-2.41,5.71,24.63,24.63,0,0,1-6,15.55,23.18,23.18,0,0,0-4.7,8.84c-2,6.82-3.14,13.86-5.24,20.66-.69,2.26-1.3,4.48-3,6.12-5.66,5.5-6.75,12.7-7.73,20-.64,4.79,0,9.62-.53,14.41-.4,3.53-.78,7.08-2.49,10.3a2.18,2.18,0,0,1-2.3,1.4c-.83-.14-1.57-.87-1.42-1.61.74-3.72-1.49-6.85-1.9-10.36a125.2,125.2,0,0,1-1-22.73c.09-1.39,0-2.83-1.35-3.56-1.69-.87-1.75-2.24-1.76-3.87,0-2.44.88-5.1-.91-7.26a8.26,8.26,0,0,1-1.77-6.19q.22-3.16.5-6.32a4.21,4.21,0,0,0-1.68-4.07c-2.11-1.52-2.51-3.63-2.49-6.09,0-5.92,2.26-11.26,4.11-16.71a17.17,17.17,0,0,0,1.28-5.6,1.67,1.67,0,0,0-1-1.63,1.14,1.14,0,0,0-1.47.54c-2.67,3.72-6.06,7-6.38,12-.14,2.19-.57,4.54-2.17,6.16a17.87,17.87,0,0,0-4.75,9.36c-.26,1.27-.76,2.89-2.4,2.86-1.94,0-1.83-1.88-2.16-3.24-.11-.42.06-1-.74-1.12-.61.79-1.24,1.62-1.9,2.44s-1,1.64-2,1.13c-.87-.43-.92-1.43-.85-2.3.09-1.25.29-2.48.45-3.72l.19-.37Z" transform="translate(-10.5 -263.41)"/><path class="cls-8" d="M569.78,352.19c1.3-3.91,4.28-6.21,6.55-9,2-2.49,4-2.77,6.85-1.21a9.08,9.08,0,0,0,6.11,1c5.33-.88,8.22,2.61,6.36,7.62a1.88,1.88,0,0,0,.36,2.05c1.41,2.05,2.64,4.2,4.13,6.22,3.91,5.29,1.06,13.73-5.6,15.69-4.3,1.26-7.23,4.65-11.37,6.07-1.75.6-1.08,2.14.25,2.77,2.64,1.27,4.25,3.53,6.07,5.64a8.56,8.56,0,0,1,2.2,7.2,6.24,6.24,0,0,0,1.32,5.12A18.32,18.32,0,0,1,597,415.33a18.75,18.75,0,0,0,2.6,12.71,10.24,10.24,0,0,1,1.21,5,3.58,3.58,0,0,1-2,3.8,3.9,3.9,0,0,1-4.33-.61,9.29,9.29,0,0,1-3.39-6.17,24.13,24.13,0,0,0-2-7.18,10.59,10.59,0,0,1-.76-5.64,7.77,7.77,0,0,0-2.64-7c-2.07-1.78-3.18-4.32-4.75-6.5-.84-1.17-1.47-2.69-2.6-3.42-4.63-3-4.86-7.44-4.52-12.19a13.56,13.56,0,0,0-.07-2c0-.17-.14-.32-.33-.72a3.44,3.44,0,0,0-1.24,3.27c.79,7.06.76,14-2.54,20.55-.67,1.34-.26,3.22-.3,4.85a8.86,8.86,0,0,1-1,4.17A3.51,3.51,0,0,1,564,420c-1.7-.39-2.86-1.54-2.57-3.3.95-5.89-1.25-11.88.73-17.72a5.3,5.3,0,0,0-.68-4.44,7.64,7.64,0,0,1,0-7.93c2.16-4.12,2-4.43-1.51-7.57-2.68-2.44-2.11-5.6-1.58-8.64.46-2.63,1.86-5.17,1.38-7.9-1.27-7.21,1-14.29.58-21.47a3.3,3.3,0,0,1,3-3.64c2.15-.37,3.48.71,4.18,2.68.93,2.6.45,5.34.76,8A6.11,6.11,0,0,0,569.78,352.19Zm.61,42.27c-.09-1.72-.19-3.45-.27-5.18a8.07,8.07,0,0,1,1-4.71,2.28,2.28,0,0,1,2.62-1.32,2.25,2.25,0,0,1,1.66,2.14,19.19,19.19,0,0,1,.11,2c.07,4.38-.14,8.69,4.15,11.78,1.85,1.34,3,3.74,4.25,5.77a18.87,18.87,0,0,0,3.19,4.07c2.58,2.35,3.3,5.34,3,8.64a8.47,8.47,0,0,0,.66,4.5,25.53,25.53,0,0,1,2.13,7.45,7.54,7.54,0,0,0,2.41,4.8,2.33,2.33,0,0,0,2.39.61c1-.34,1-1.29,1-2.16a8.06,8.06,0,0,0-1.12-4.42A18.24,18.24,0,0,1,595,416.27a18.53,18.53,0,0,0-3.91-14.33,6.21,6.21,0,0,1-1.37-5.39,7.29,7.29,0,0,0-2-6.63,21.76,21.76,0,0,0-5.48-5c-2.53-1.42-3-4.65-.75-5.58,4.19-1.74,7.34-5.13,11.82-6.46,5.91-1.74,9-8.59,4.25-14.23a52.45,52.45,0,0,1-4-6c-.58-.91-.24-1.82.15-2.75,1.44-3.35-.28-5.59-3.93-5.1-2.43.34-4.85.44-7-.89-2.43-1.51-4-.64-5.69,1.29-2.65,3.07-5.26,6.12-6.79,9.94-.33.8-.81,1.6-1.91,1.39a1.22,1.22,0,0,1-1-1.28c0-3.46-1.7-6.7-1.31-10.23a11.64,11.64,0,0,0-.36-3.7c-.22-1-.74-2.16-2.08-1.95s-1.58,1.26-1.53,2.41c.33,7.07-1.62,14.08-.55,21.18.43,2.83-.91,5.46-1.43,8.19-.59,3.08-.74,5.86,2.82,7.56,2,1,1.88,3.16,1.62,5.11a15.67,15.67,0,0,1-1.78,4.54c-.51,1.06-1.09,2.24-.44,3.3,2.31,3.76,2.07,7.61.91,11.64a7.24,7.24,0,0,0,0,3.43,20.2,20.2,0,0,1,.14,6.85c-.17,1.54-1.44,4.24,1.37,4.43,2.41.17,2.2-2.47,2.42-4.19.28-2.27-.39-4.68.78-6.81A21,21,0,0,0,570.39,394.46Z" transform="translate(-10.5 -263.41)"/><path class="cls-8" d="M550.07,368.55c.48,2.86-.74,5.58-2.1,8.25a6.23,6.23,0,0,0,.88,7.64c5.87,7,5.52,11.87-.69,18.77-2.95,3.28-5.35,7.05-9.22,9.43-2.24,1.38-4.41,2.74-7.25,1.88-1.29-.39-2.37.6-3.54,1-3.13,1-4.22.15-6.35-2.24a13.65,13.65,0,0,0-9.06-4.59c-3.55-.27-4.79-1.08-5.19-4.7a33,33,0,0,1,.08-7.76,14.8,14.8,0,0,0-2.45-10.95c-2.17-3.05-1.81-6.59.85-9.85a10.55,10.55,0,0,0,2.46-5.69,12.46,12.46,0,0,1,6.86-10,7.7,7.7,0,0,0,3.06-2.93c.83-1.39,1.94-2.62,2.91-3.93,8.12-11,21-5.07,25.25,2.34C548.74,358.91,550.54,363.48,550.07,368.55Zm-40.52,28.12c0,2.95,0,5.16,0,7.37,0,1.12.49,2.58,1.53,2.46,3.68-.43,6.29,1.94,9.37,3.07,1.43.52,2.58,1.07,3.18,2.59.75,1.91,2.22,2.14,4,1.42,1.42-.58,2.83-1.35,4.43-1,2.4.49,4.26-.58,6.16-1.81,3.65-2.37,5.83-6.07,8.67-9.18,5.25-5.74,5.74-9.18.86-15.15-3.1-3.79-3.24-7.17-1.25-11.34,3.49-7.3,1.34-17.8-5.07-22.69-5.86-4.46-12.5-5.77-18.07,1.06a46.33,46.33,0,0,0-3.3,4.37,8.62,8.62,0,0,1-3.43,3.37,11,11,0,0,0-6.29,9.05,11.4,11.4,0,0,1-2.83,6.47c-1.79,2.07-2.44,4.74-.91,7A18,18,0,0,1,509.55,396.67Z" transform="translate(-10.5 -263.41)"/><path class="cls-3" d="M491.05,450.72c-1.68-2-4.08-3.34-5.23-5.82-.23-1.75-.47-3.49-.7-5.24.21-.86.27-1.63-.91-1.76h0c.07-1.07-.69-1.26-1.49-1.41-.08-.3-.17-.6-.25-.89a13.15,13.15,0,0,0-1.8-4.07c0-.35-.07-.7-.1-1.05l.18-4.12a.91.91,0,0,0,.32-1.18l.23-2.29a1,1,0,0,0,.39-1.17l.18-1.73c.56-.39.57-.76,0-1.12a1,1,0,0,0-.86-1.18,2.85,2.85,0,0,0-1.4-1.72c.05-.67-.19-1.13-.91-1.23-.27-.74-.17-1.64-.91-2.18.32-1.38-.77-2.32-1.24-3.37-2.34-5.17-1.42-10.59-1.54-15.92,0-2,.06-3.92-1.2-5.61-.18-.57-.37-1.14-.56-1.71-.07-.78-.14-1.55-.2-2.32a.91.91,0,0,0-.37-1.16l-.08-1.15a6.13,6.13,0,0,0-.31-3.15c-1.26,1.05-2.33,2-2.37,3.72l-.11,2.89c-.92,1.48-.46,3.07-.34,4.63-.34,2.65-.06,5.38-1,8a10.84,10.84,0,0,0-2.41,5.23c-.71.11-.88.61-.9,1.23-1.13,2.17-1.15,4.54-1.09,6.89.11,3.61.12,7.19-1.76,10.46l-1.17,1.17a10.1,10.1,0,0,0-1.36.38c-4.13,1.73-7.31,1.07-10.48-2S445.56,414,445,410.09c-.18-1.16-.09-2.3-1.43-2.85-5.77-2.38-7.27-7.24-6.57-12.72.59-4.56-.6-8.9-1.8-12.87-1.74-5.75-3.85-11.35-4.67-17.35a4.09,4.09,0,0,0-4.05-3.75l-.19-.13.21.11c-.61,3.27-.7,6.6-1.39,9.88s-1.89,6.82-1.33,10.42c0,.36,0,.73,0,1.09-1.08,4.39-2.37,8.74-2.32,13.32v2.19c-.24,4.51.54,9.16-1.82,13.38l-1.14,1.2c-6.5,4.64-5.63,8.8-3.41,16.07,0,.55.05,1.11.07,1.66a7.47,7.47,0,0,0,0,3.64c0,.36,0,.73,0,1.09-2.87,6.45-4.52,13.27-6,20.13h0a2.34,2.34,0,0,0-1.58,2.42h0c-7,5-12.29,2.89-14.16-5.72-.76-3.49,0-7.05-.45-10.56l0-1.13c1.21-1.81.67-3.67,0-5.47a13.46,13.46,0,0,1-.38-8.73c1.35-4.36.66-8.53-.86-12.88-2.8-8-2.78-16,3-22.83a20.26,20.26,0,0,0,4.65-17.65c-.55-3-.86-6.06-1.16-9.11-.69-6.89,1.47-13.25,3.63-19.65A94.82,94.82,0,0,0,406.13,326c.62-4.49,1.11-8.89,2.92-13.11,2.61-6.08,5.4-7.65,11.67-6.16l0,0c1.06,1.78,2.17,1.54,3.34.09a14.38,14.38,0,0,0,2.82-6.53c1.56-7.9,5.58-14,12.81-17.88l1.76,0c1,.92,2.29.92,3.5,1.2h0a7.56,7.56,0,0,0,2.88,2.87l0,0c.3,1.2.26,2.53,1.24,3.48,0,1,0,2,0,2.93-1.16,1.38-1,3.19-1.56,4.78-1.4,4.25-3.28,8.36-4.09,12.79-.3,1.66-.72,3.47,1.38,4.44h0c3.26,4.59,2,9.89,2.55,14.95.43,4.1,2.77,7.9,2.56,12.22a1.84,1.84,0,0,0,.51,1c1.09,1.38,2.08,1.61,3-.24.75-1.55,1.33-3.34,2.49-4.52,4.74-4.84,5.39-11.27,6.84-17.31,1.87-7.76,3.44-15.53,8.88-21.84a14.7,14.7,0,0,0,3.87-8.8c.27-4.79,1.3-9.23,4.94-12.79a18,18,0,0,0,3.71-5.08c2.06-4.46,4.93-7.87,9.84-9.19l1.18,0a25.39,25.39,0,0,1,5.81,4.09h0c.29,1.2.26,2.52,1.24,3.48l0,3.51c-.89,2.25-2.35,4.32-2.14,6.91l-.09,1.43c-.79.19-1.49.46-1.31,1.51-.31.92-.62,1.84-.94,2.76-.72.13-.92.6-.79,1.28l-.94,2.76c-1.9,2.17-2.26,4.87-2.63,7.58a1.49,1.49,0,0,0-.37,1.74c-.07,1.73-.13,3.46-.2,5.19a5.81,5.81,0,0,0,0,5.19,6.35,6.35,0,0,0,1.16,3.47l.15,1.07c.2,1.18.4,2.37.61,3.55a.9.9,0,0,0,.4,1.14l.81,5.2a.89.89,0,0,0,.32,1.17l.23,9.8c-.16,1-.48,2,.35,2.9a73.66,73.66,0,0,1,3.18,15.92c.23,3.31-1,7.29,2.23,10.07.53.46.26,1.74,1.36,1.55.92-.15.83-1.21,1.13-1.86a17.07,17.07,0,0,1,5.61-7.53,30,30,0,0,0,6.27-6.26c3.93-4.93,8.45-9,15.29-9,8.48,0,17.58,6.39,20.48,14.35.46,1.28.57,2.75,2,4.2.44-6.9.89-13.34,1.26-19.79a8.76,8.76,0,0,1,6.2-7.83,7.58,7.58,0,0,1,8.9,3.58,38,38,0,0,1,1.72,3.51c1.05-.29,1.56-1.17,2.3-1.75,2.23-1.78,4.82-2.78,7.51-1.72a25.7,25.7,0,0,0,9.26,1.46c5.46.12,10.65,5.84,9.66,10.76a6.46,6.46,0,0,0,1.75,6,15.87,15.87,0,0,1,3.23,6.63c.55,2.05-.09,4.27,1.09,6.22a16.16,16.16,0,0,1,2-6.55,8.35,8.35,0,0,0,.65-3.07c.34-6.95,3.28-13.33,4.46-20.1a8.92,8.92,0,0,1,1.17-2.3c1.34-2.55,2.83-5,4-7.67a15.85,15.85,0,0,1,4.18-5.76,9.71,9.71,0,0,1,11.29-.9c3.05,2,4.09,5.79,2.82,10-.84,2.77-2.34,5.23-3.54,7.82-1,1.05-.69,1.87.49,2.5l1.32,3.88c0,1.15,0,2.3.05,3.45a.84.84,0,0,0-.48,1.16l-.68,3.51c-.13.53-.26,1.07-.38,1.6-.71.11-.87.61-.88,1.23a.88.88,0,0,0-.37,1.16l-.22,2.88a1,1,0,0,0-.39,1.16v1.23c-.06.36-.11.71-.16,1.07a6.53,6.53,0,0,0-1.18,3.46c-1.45,2.7.43,2.82,2.28,3a3.33,3.33,0,0,0,2.37,1,1.83,1.83,0,0,0,.46.12c.11.73.5,1.07,1.25.93h2.38l1.07.12a6.16,6.16,0,0,0,3,1.09,1.63,1.63,0,0,0,.52.15c.51.48.85,1.23,1.74,1.1l2.23.85c.8,1.5,2.52.59,3.59,1.37a2,2,0,0,0,.53.14c.5.48.88,1.17,1.74,1.08.33.56.84,1.48,1.33,1.17.71-.45.3-1.49.22-2.29l0-1.72a1.49,1.49,0,0,0-.37-1.75,4.66,4.66,0,0,0-1.47-3.53c-.13-.54-.26-1.07-.38-1.6L652.62,364a1,1,0,0,0-.39-1.17l-.24-6.91c.06-3.09.69-6.19-.38-9.23a8.18,8.18,0,0,0-1.19-4.09l-.09-1.05c.64-3.49-.73-7.22,1.3-10.53.75-.83,1.66-1.56,1.62-2.84a25.79,25.79,0,0,0-.09-6.91.92.92,0,0,0-.35-1.17c.25-2.74-.86-5.66,1-8.19a3.88,3.88,0,0,0,1.73-1.74,8.91,8.91,0,0,1,8.32,0,3.74,3.74,0,0,0,1.73,1.74c0,.53.33.73.81.77.74,2.9,2.39,5.37,3.79,8,.6,1.6.53,3.48,1.95,4.75.12.53.25,1.06.37,1.59.42,1.75.85,3.5,1.27,5.25a.9.9,0,0,0,.37,1.16c.06.58.11,1.15.16,1.73-.15.73.19,1.12.89,1.26.06.33.13.66.2,1-.15.67,0,1.14.77,1.29l.39,1.59c.32,1,.65,2,1,3,0,.94.17,1.83,1.27,2.15a.35.35,0,0,0,.38.18,23.47,23.47,0,0,1,3.15,4.52c.24,1.94.47,3.88.71,5.82a2.71,2.71,0,0,0,.35,2.33l0,6.35a3.51,3.51,0,0,0,1.07,4.8c.82,2.74,1.33,5.65,4,7.37.35,1.09.92,1.4,1.83.51l1.15-.15a1,1,0,0,0,1.28-.89,4.68,4.68,0,0,0,3.29-1.36l4.7-1.54c1-.16,2.34.17,2.73-1.33a2.11,2.11,0,0,0,1.26-1.12,1.64,1.64,0,0,0,1.83-1.45c4.08-.94,7-3.54,9.59-6.63a1.67,1.67,0,0,0,1.85-1.28,8.18,8.18,0,0,0,3.62-2c.85-.12,1.9.19,2.27-1,1.21-.75,2.79-.57,3.9-1.55a12.33,12.33,0,0,1,9.29.72l2.19,2.38c.23,3,.74,6.05-1.41,8.67l-4.65,4.54a1.55,1.55,0,0,0-1.37,1.5c-1.78.42-2.68,1.9-3.8,3.13a1.54,1.54,0,0,0-1.4,1.47,8.46,8.46,0,0,0-3.72,2.6.84.84,0,0,0-.9.85,5.21,5.21,0,0,0-2.79,1.43c-.69-.08-1.15.17-1.25.9-.59.19-1.27.24-1.59.91a1.42,1.42,0,0,0-1.29,1.42,5.15,5.15,0,0,0-2.81,2c-1.11-.09-1.4.85-1.92,1.52l-1,.21c-1.62-.43-2.22,1.33-3.5,1.62-1.16.13-2.28.3-2.15,1.9-1.76,4.08-5.17,6.76-8.22,9.75a1,1,0,0,0-1.23.92c-1.3.09-2.24,1-3.34,1.49-1.13.19-2.29.29-3,1.35a9.61,9.61,0,0,0-7.26,5.41c-1.26,2.56-3.3,4.41-5.15,6.45a9.27,9.27,0,0,0-3.11,2.3,1,1,0,0,0-.94.59c-.89.65-2.13.86-2.57,2.07a10.29,10.29,0,0,0-4.46,2.69c-.76.1-1.47.27-1.62,1.2a1.67,1.67,0,0,0-1.25,1.13c-1.59.28-1.17,1.64-1.4,2.64l-2.07,4.76a6.49,6.49,0,0,0-2.57,2.77,3.65,3.65,0,0,0-2,2.41,2.79,2.79,0,0,0-1.5,2.16,4.63,4.63,0,0,0-2.07,3c-1.63,1.32-1.86,3.34-2.55,5.12a1,1,0,0,0-1,1.21c-3,2.45-6.47,4.37-8.26,8a2.41,2.41,0,0,0-2,1.88l-2.36,2.34c-1.23.21-1.59,1.41-2.39,2.12a1.22,1.22,0,0,0-1.1.67c-.71.35-1.53.58-1.79,1.48l-2.8,1.54-3,.62a1,1,0,0,0-1.16.4c-2.33.56-4.79.6-6.94,1.81-3,.72-4.89,2.91-6.74,5.15a2.32,2.32,0,0,0-1.93,1.5c-1.29.43-1.83,1.66-2.7,2.54A12,12,0,0,1,592,485.9l-.94-.57a9.38,9.38,0,0,1-2.45-10l.24-1c1-.23,1.11-1,1.07-1.82l5.67-5.93c1.06-.44,2.15-.87,2.39-2.2a4.65,4.65,0,0,0,2.74-2.31l1.32-1a1.29,1.29,0,0,0,1.13-.66c.68-1.13,2.54-.73,2.92-2.25a5.24,5.24,0,0,0,3.42-1.82,2.76,2.76,0,0,0,2.34-1.12c1.11-.09,2-.88,1.76-1.79s-1.44-.89-2.34-1c-4.76-2.44-6.1-6.76-6.44-11.64v-3.16l-2.9,3.11c-2.11,1.42-4.53,1.16-6.88,1.3l-1.61-.34a3.62,3.62,0,0,0-2.49-1.87c-.62-1.31-2.35-1.61-2.8-3.07-.46-2.18-2-4-1.91-6.36a1,1,0,0,0-.37-1.17c-1.39-4.32-3-8.6-2.5-13.27.15-.74-.15-1.14-.91-1.18-.41-2.13-2.33-3.08-3.55-4.59a2.87,2.87,0,0,0-1.15-2.32c-.1-.91-.49-1.76-1.49-1.59s-1.22,1.24-1.34,2.16a4,4,0,0,0-.62,2.89c-.85,1.09-.47,2.3-.32,3.48,0,.79,0,1.59-.07,2.38l-.15,1.07c-.56.24-.62.69-.5,1.21a18.41,18.41,0,0,1-4.26,5l-6.89.26c-1.71-.48-2.69-2-4.1-2.89-.42-1.19-.84-2.38-1.25-3.57.16-.66.28-1.32-.49-1.72v-1.19c.77-.42.66-1.07.45-1.74.25-1.95.74-3.92-.4-5.78,0-.35-.06-.7-.08-1.05,0-.79,0-1.59.07-2.38.11-1.25.22-2.49.32-3.74a5.44,5.44,0,0,0-2.54,3.15c-1.41,1.14-2.83,2.26-3.34,4.13-.64.33-.72,1-.93,1.58a.85.85,0,0,0-.88.84l-4.55,4.54c-.54,0-.73.36-.75.85-1.62.36-2.72,1.56-4,2.49A23.3,23.3,0,0,1,531,419.6a1,1,0,0,0-1.25.89v0c-3.4.28-6.78.5-9.78-1.61l-1.18-1.16c-.27-2.19-2.08-2.39-3.68-2.84-.16-.43-.51-.49-.9-.46-.75-1.27-1.88-.76-2.94-.65l-1.08,0a4.06,4.06,0,0,0-3-1.13l-.58-.42a1.75,1.75,0,0,0-1.23-1.39c-2.34-2.68-2.77-5.84-2.83-9.31-.07-3.8,1.4-7.66-.25-11.53a17.85,17.85,0,0,1-1.9,5.12,7.52,7.52,0,0,0,.07,8.39,12.86,12.86,0,0,1,2.22,7.3c0,.38,0,.77,0,1.15-.72.68-.53,1.5-.37,2.32l-.05,2.29a1.3,1.3,0,0,0,1.05,1.65l1.15,1.59c.78,1.82,1.57,3.64,2.35,5.47,0,1.14,0,2.29.05,3.44a.79.79,0,0,0-.47,1.15c-.33,1.34-.4,2.72-.72,4.08-.25,1.08-.88,2.64.74,3.5.09.36.19.72.29,1.07,0,1.16.25,2.09,1.54,2.37a7,7,0,0,0,1.48,3.34c.24,1.56.47,3.11.71,4.67a1.44,1.44,0,0,0,.32,1.75c.07,1,.15,1.92.22,2.88a.91.91,0,0,0,.37,1.15c0,.66-.11,1.36.64,1.75,0,1.14,0,2.29,0,3.44-.07.35-.13.7-.19,1.05-.86,1.05-1.72,2.11-2.59,3.16a11.22,11.22,0,0,1-8.29.55l-1.59-.4c-1.21-1.24-3.1-.95-4.43-1.94-.51-.5-1-1-1.51-1.51-1.56-2.84-1-6-1.19-9C492.23,451,491.86,450.62,491.05,450.72ZM606,390.06a1.29,1.29,0,0,0-1.79-1l-1-.13c-.48-.79-1.17-.66-1.89-.43-1.37.14-2.53-.64-3.81-.92-1.48-1.8-3.47-3.21-4.08-5.65-.14-.57.17-2-1.12-1.29-1,.53-2.6,1.62-1.4,2.84,2,2,3.16,4.68,5.21,6.62.64.8.08,1.78.39,2.63-.27,2.83-.9,5.74,1.92,7.8.15.74.22,1.53,1.2,1.68.09.32.19.63.28.95a8,8,0,0,0,1.62,4.17l.2,1.58-.24,11.41a1.39,1.39,0,0,0,1,1.56l.33,1.5c.22,2.51,2.14,4.33,2.78,6.76,1.6-4.31,2.85-8.58.46-13l-.13-1a17.85,17.85,0,0,0,0-5.46c0-.32.07-.65.11-1,1-1.65,1.43-3.27-.31-4.74-.56-.62-.16-1.4-.38-2.08a11.62,11.62,0,0,0,0-4.32c.14-.68-.18-1.44.34-2.06.72-.22,1.06-.64.79-1.41,0-.33.07-.67.1-1,1-1.48,1.31-2.87-.54-4ZM475.61,342.25c-1.32,5.73,1.26,9.74,5.18,13.28a3.69,3.69,0,0,1,.74,4c-1,3.21-1.71,6.54-3,9.62a20.25,20.25,0,0,0-.49,14.4,38.34,38.34,0,0,1,1.56,13.62A26.53,26.53,0,0,0,486,415.86a5,5,0,0,1,1,4.82,60.13,60.13,0,0,0-1.38,7.63c-.26,2.29.17,4.6,2.51,5.68,1.66.77,1.94,1.9,1.77,3.45-.48,4.39,1,7.74,5.14,9.66,2.24,1,2.64,2.76,2.17,5a13.85,13.85,0,0,0-.29,4.3c.21,1.83,1.43,2.87,3.25,2,1.12-.54,1.55-.58,2.1.59a2.38,2.38,0,0,0,3.34,1.36c1.51-.68,1.51-2,1.21-3.47a35.84,35.84,0,0,1-1-5.67c-.13-2.75-.41-5.46-2.13-7.66a13.25,13.25,0,0,1-2.28-13,8.93,8.93,0,0,0-2.15-9.37,6.66,6.66,0,0,1-1.81-6.11,15.57,15.57,0,0,0-1.8-11.1c-1.91-3.18-1.81-6.46.05-9.85,2.07-3.78,3.13-8,2.15-12.26a17.93,17.93,0,0,1,0-8.21c.69-3.08,1.36-6.28-1.67-8.79a3.07,3.07,0,0,1-.8-2.39c.33-2.79-.29-5.52-.28-8.25a24.4,24.4,0,0,0-2-10.37,14.94,14.94,0,0,1-1.33-7,67.16,67.16,0,0,0-2.71-21.08c-2.45-8.75-1.4-17.36,1.71-25.73,1.77-4.78,4-9.39,5.86-14.12,1.27-3.19.55-6.41-1.44-7.21-1.8-.73-4.36.73-5.72,3.81a32.5,32.5,0,0,1-6,8.76,10.17,10.17,0,0,0-2.91,6.71,23.58,23.58,0,0,1-6.06,15.23,22,22,0,0,0-4.76,9.44c-1.79,6.87-3.56,13.74-5.25,20.64a9.22,9.22,0,0,1-2.37,4.85c-4,3.71-5.72,8.47-7,13.6a59.65,59.65,0,0,0-1.54,15.73,38.64,38.64,0,0,1-2.46,15.26c.5-2.46-.61-4.47-1.5-6.55a8.49,8.49,0,0,1-.5-2.53c-.76-7.56-1.74-15.1-.91-22.73.18-1.75,0-3.7-1.64-4.67s-1.6-2.36-1.54-3.93c.08-2.38.57-4.92-1.11-6.95a7.37,7.37,0,0,1-1.47-5.67c.15-1.92.22-3.84.36-5.76a6.3,6.3,0,0,0-2.58-6.06,4.06,4.06,0,0,1-1.59-3.78,36.88,36.88,0,0,1,2.57-12.36,46.66,46.66,0,0,0,2.92-9.94,3.52,3.52,0,0,0-1.94-3.86c-1.16-.61-2.52-.83-3.44.34-3.13,4-6.82,7.65-7.31,13.13a11.29,11.29,0,0,1-3.32,7.46,12.11,12.11,0,0,0-3.19,6.67c-.14.75.17,1.78-.93,2.17-1.25-4.54-1.52-4.67-5.44-2.4.09-1.62,1.53-3.71-.86-4.45s-3.08,1.53-3.88,3.07a20.38,20.38,0,0,0-2.54,8.5A70,70,0,0,1,406.39,344,51.2,51.2,0,0,0,404,372c1.28,7,.22,13.75-4.84,19.43-5.25,5.88-5.51,12.77-2.9,19.75a24.26,24.26,0,0,1,.9,15.25c-.42,1.59-.89,3.25-.18,4.81,1.5,3.33,1.12,6.74.88,10.2a35.5,35.5,0,0,0,.43,10.64,3.44,3.44,0,0,0,2.77,3c1.66.25,2.34-1,3-2.19a15.16,15.16,0,0,0,1.77-4.83c.51-2.73.86-5.65,2.12-8.05,2.77-5.27,2.63-10.61,1.18-16-1.61-6,.55-10.58,4.67-14.49a8.64,8.64,0,0,0,3-7.41c-.2-2.67-1-5.36-.36-8,2-8.44,2.25-17.16,4.25-25.59a22.68,22.68,0,0,0-.24-12,15.17,15.17,0,0,1-.18-8.55c1.17-4.26,1.91-8.68,4.41-13.18,1,3.64.32,6.58.06,9.49a8.29,8.29,0,0,0,2.89,7.48,6,6,0,0,1,2.27,3.56,4,4,0,0,0,2.23,2.86c1.94,1.08,2.72,2.78,3.11,4.9.71,3.86.62,7.88,2.3,11.55a41.66,41.66,0,0,1,4,21.12c-.37,4.39,1.09,6.3,5.34,7.54a3.12,3.12,0,0,1,2.53,3.34,23.52,23.52,0,0,0,1.29,7.94c1.23,3.29,3.55,5.05,5.9,4.4,3.1-.85,2.89-3.47,2.83-5.88-.12-4.94-.09-9.88,2.49-14.31a20.91,20.91,0,0,0,2.76-11.89,17.16,17.16,0,0,1,4.24-12.71,18.33,18.33,0,0,0,4.31-16.38C472.14,352.54,474.1,347.46,475.61,342.25Zm208.5,44.11c1-3.35.59-5.89-1.13-8.31-3.13-4.4-5.33-9.12-4.64-14.77a29.65,29.65,0,0,0,0-4.32c-.12-4.27-.21-8.56-4.3-11.33a1.8,1.8,0,0,1-.67-.93c-1.22-4.23-3.44-8.11-4.26-12.51-1.22-6.58-4-12.59-7.12-18.47-.55-1-1.33-2-2.74-1.63s-1.67,1.6-1.66,2.73c0,1.62.53,3.24.49,4.86-.09,4.05,1.95,8.51-2.13,11.89-.35.29-.34,1.07-.41,1.64a14.23,14.23,0,0,0,0,5.74c1.73,5.93,1,12,1.38,18a17.1,17.1,0,0,0,1.26,6.47,31,31,0,0,1,2.94,13.69c0,2.1.94,3.9,3,4.4,1.61.38,1.4,1.18,1.2,2.25a70.08,70.08,0,0,1-3.53,11.87A12.43,12.43,0,0,0,661,405c.59,2.59-.43,3.86-2.9,4.56-3.23.91-6.43,2-9.56,3.2-2.59,1-3.64,3-2.3,4.6s.45,2-.72,2.61a29.54,29.54,0,0,0-8.48,6.85c-1.58,1.93-2,4-.47,6.05,1.45,1.9.87,3.29-.59,4.71a21,21,0,0,1-3.08,3c-4.93,3.06-7.3,8.75-12.28,11.76a6.25,6.25,0,0,0-2.07,2.72,11.58,11.58,0,0,1-6.19,5.74c-6.46,2.89-11.29,7.93-16.46,12.51a10,10,0,0,0-2.55,4.14,3.14,3.14,0,0,0,.6,3.5,3.29,3.29,0,0,0,3.49.69,7.83,7.83,0,0,0,3.34-2.19c5.92-5.92,12.2-11.14,21.17-11.6,2-.1,3.7-1.42,5.34-2.66,5.46-4.15,9.08-10.21,14.75-14.14a3.76,3.76,0,0,0,1.15-1.63c2.16-5.26,5.64-9.58,9.52-13.63a7.89,7.89,0,0,0,2.48-4.14,10.18,10.18,0,0,1,4.49-6.78c3.92-2.78,7.88-5.51,11.83-8.25a11.62,11.62,0,0,0,4.16-4.31c2.38-5,6.4-7.91,11.58-9.66,5.45-1.85,10-4.92,12-10.76a4,4,0,0,1,2.07-2.31c5.28-2.59,9.81-6.35,14.77-9.4,6.56-4,12-9.33,17.58-14.4.93-.85,1.82-1.94.9-3.27a2.73,2.73,0,0,0-3.53-1.19c-4.72,2.48-9.87,3.91-14.1,7.63a63,63,0,0,1-16,9.81C695.4,381.21,689,381.37,684.11,386.36ZM569.78,352.19a6.11,6.11,0,0,1-1.53-4.1c-.31-2.67.17-5.41-.76-8-.7-2-2-3.05-4.18-2.68a3.3,3.3,0,0,0-3,3.64c.44,7.18-1.85,14.26-.58,21.47.48,2.73-.92,5.27-1.38,7.9-.53,3-1.1,6.2,1.58,8.64,3.47,3.14,3.67,3.45,1.51,7.57a7.64,7.64,0,0,0,0,7.93,5.3,5.3,0,0,1,.68,4.44c-2,5.84.22,11.83-.73,17.72-.29,1.76.87,2.91,2.57,3.3a3.51,3.51,0,0,0,4.18-1.75,8.86,8.86,0,0,0,1-4.17c0-1.63-.37-3.51.3-4.85,3.3-6.59,3.33-13.49,2.54-20.55a3.44,3.44,0,0,1,1.24-3.27c.19.4.32.55.33.72a13.56,13.56,0,0,1,.07,2c-.34,4.75-.11,9.2,4.52,12.19,1.13.73,1.76,2.25,2.6,3.42,1.57,2.18,2.68,4.72,4.75,6.5a7.77,7.77,0,0,1,2.64,7,10.59,10.59,0,0,0,.76,5.64,24.13,24.13,0,0,1,2,7.18,9.29,9.29,0,0,0,3.39,6.17,3.9,3.9,0,0,0,4.33.61,3.58,3.58,0,0,0,2-3.8,10.24,10.24,0,0,0-1.21-5,18.75,18.75,0,0,1-2.6-12.71A18.32,18.32,0,0,0,593,401.28a6.24,6.24,0,0,1-1.32-5.12,8.56,8.56,0,0,0-2.2-7.2c-1.82-2.11-3.43-4.37-6.07-5.64-1.33-.63-2-2.17-.25-2.77,4.14-1.42,7.07-4.81,11.37-6.07,6.66-2,9.51-10.4,5.6-15.69-1.49-2-2.72-4.17-4.13-6.22a1.88,1.88,0,0,1-.36-2.05c1.86-5-1-8.5-6.36-7.62a9.08,9.08,0,0,1-6.11-1c-2.85-1.56-4.84-1.28-6.85,1.21C574.06,346,571.08,348.28,569.78,352.19Zm44.72,34.67c-3.51,4-2.72,8.55-4.39,12.42-1.3,3,2,5.75,1.47,8.53s-1.81,5.69-.64,8.67a15.75,15.75,0,0,1,.81,4.8c.24,3.71-.69,7.23-1.38,10.81-.91,4.64-1.4,9.36.65,13.89.49,1.07,1.17,2,2.59,1.91s1.9-1.29,2.1-2.39a79.64,79.64,0,0,1,2.46-8.29c1.72-5.87,1.4-12,2.25-18s4.45-11.5,2.46-17.84c1.91-3.8,1.72-7.8,1.18-11.86-.11-.81-.34-1.86.72-2.26a2.2,2.2,0,0,1,2.32.82,7.31,7.31,0,0,0,6,2.34c3.68-.34,7.11-.09,10.25,2.22a6.12,6.12,0,0,0,4.19.8c1.76-.18,3.35-.71,3-2.95-.18-1.24.71-1.38,1.4-1.84,2.56-1.72,3-4.17.37-5.44-4.45-2.18-8.89-4.62-13.77-5.69-2-.44-4.38.76-5.62-2-.18-.4-1.21-.55-1.85-.57a22.22,22.22,0,0,0-3.74.2c-3.88.58-4,.39-2.67-3.39,1-2.71,1.84-5.46,2.69-8.21,1.36-4.39,1.48-9.05,3.36-13.36,1-2.34.95-5.25-1.43-7.17-1.8-1.45-1.5-2.85-.47-4.51,1.66-2.69,3.48-5.31,4.52-8.35.59-1.73.89-3.48-.75-4.75s-3.43-1-5.17-.11a7.5,7.5,0,0,0-3.25,3.91c-.54,1.23-1.17,2.41-1.78,3.61-2.27,4.52-4.6,8.85-5.22,14.17-.55,4.75-3.08,9.25-2.78,14.28a2.77,2.77,0,0,1-.54,1.32,12.27,12.27,0,0,0-1.43,7.81c.3,2.45-.18,4.22-3.28,3.95a5.35,5.35,0,0,0-3.77,1.26,5.44,5.44,0,0,1-3.44,1.18c-2.07.06-4,.81-4.05,3.21-.09,2.57,1.91,3.62,4,3.6,2.48,0,4.44,1,6.47,2.06C610,386.52,611.54,387.49,614.5,386.86Zm-64.43-18.31c.47-5.07-1.33-9.64-3.5-13.39-4.29-7.41-17.13-13.36-25.25-2.34-1,1.31-2.08,2.54-2.91,3.93a7.7,7.7,0,0,1-3.06,2.93,12.46,12.46,0,0,0-6.86,10A10.55,10.55,0,0,1,506,375.4c-2.66,3.26-3,6.8-.85,9.85a14.8,14.8,0,0,1,2.45,10.95,33,33,0,0,0-.08,7.76c.4,3.62,1.64,4.43,5.19,4.7a13.65,13.65,0,0,1,9.06,4.59c2.13,2.39,3.22,3.21,6.35,2.24,1.17-.37,2.25-1.36,3.54-1,2.84.86,5-.5,7.25-1.88,3.87-2.38,6.27-6.15,9.22-9.43,6.21-6.9,6.56-11.75.69-18.77a6.23,6.23,0,0,1-.88-7.64C549.33,374.13,550.55,371.41,550.07,368.55Zm70.59,76.9c2.59-3.33,6-5.7,9.06-8.4a3.85,3.85,0,0,0,1.41-4.54,8.28,8.28,0,0,1,1.27-7.4,23.49,23.49,0,0,1,5.54-5.8c1.39-1,2.94-2.1,3.13-4,.41-4.19,3.24-6.1,6.69-7.45a45.29,45.29,0,0,1,5.49-1.7c2.36-.57,3.34-1.91,3-4.35a9.36,9.36,0,0,1,.7-4.51c.75-2.18,1.51-4.35,2.19-6.55.17-.55.87-1.3-.05-1.76s-1.41.17-1.86.88c-.81,1.3-1.7,2.55-2.49,3.86a8.13,8.13,0,0,1-7.29,4.34,13.78,13.78,0,0,1-7.45-1.83c-3.06-1.83-6.37-.83-9.58-1.07a1,1,0,0,0-1.19,1c-.13,2.12-1.36,4-1.25,6.18.24,5,.32,10-2.43,14.51a4,4,0,0,0-.39,1.67C624.35,427.6,624.18,436.74,620.66,445.45Zm-64.5-58.31c1.59-2.12,2.49-4.12-.18-6.13-.72-.53-1-1.63-1.56-2.39-.41-.54-.1-1.8-1.24-1.59-.77.15-1.12,1-1.5,1.66a2.45,2.45,0,0,0,.36,3.13C553.47,383.49,554.74,385.28,556.16,387.14ZM503.49,369.3a2,2,0,0,0,.25-.4c0-.07,0-.17-.05-.26s-.31.09-.31.13A2.28,2.28,0,0,0,503.49,369.3Zm53.7,28.88a1.92,1.92,0,0,0,.24-.4c0-.07,0-.17,0-.25s-.29.08-.29.12A2.87,2.87,0,0,0,557.19,398.18Z" transform="translate(-10.5 -263.41)"/><path class="cls-2" d="M416.69,313.81c-.16,1.24-.36,2.47-.45,3.72-.07.87,0,1.87.85,2.3,1,.51,1.52-.46,2-1.13s1.29-1.65,1.9-2.44c.8.13.63.7.74,1.12.33,1.36.22,3.2,2.16,3.24,1.64,0,2.14-1.59,2.4-2.86a17.87,17.87,0,0,1,4.75-9.36c1.6-1.62,2-4,2.17-6.16.32-5,3.71-8.31,6.38-12a1.14,1.14,0,0,1,1.47-.54,1.67,1.67,0,0,1,1,1.63,17.17,17.17,0,0,1-1.28,5.6c-1.85,5.45-4.08,10.79-4.11,16.71,0,2.46.38,4.57,2.49,6.09a4.21,4.21,0,0,1,1.68,4.07q-.27,3.15-.5,6.32a8.26,8.26,0,0,0,1.77,6.19c1.79,2.16.9,4.82.91,7.26,0,1.63.07,3,1.76,3.87,1.4.73,1.44,2.17,1.35,3.56a125.2,125.2,0,0,0,1,22.73c.41,3.51,2.64,6.64,1.9,10.36-.15.74.59,1.47,1.42,1.61a2.18,2.18,0,0,0,2.3-1.4c1.71-3.22,2.09-6.77,2.49-10.3.53-4.79-.11-9.62.53-14.41,1-7.29,2.07-14.49,7.73-20,1.68-1.64,2.29-3.86,3-6.12,2.1-6.8,3.22-13.84,5.24-20.66a23.18,23.18,0,0,1,4.7-8.84,24.63,24.63,0,0,0,6-15.55,8.92,8.92,0,0,1,2.41-5.71,30.19,30.19,0,0,0,6.18-9c.56-1.42,1.64-3.58,3.33-2.86s1,2.9.37,4.43c-1.46,3.66-3,7.3-4.55,10.91-4.49,10.19-5.81,20.62-2.68,31.47a62.88,62.88,0,0,1,2.33,19.39,17,17,0,0,0,1.54,7.84,20,20,0,0,1,1.64,8.7c0,3.14.65,6.27.44,9.44a3.61,3.61,0,0,0,1.07,2.92c2.35,2.06,2.06,4.55,1.41,7.14a18.05,18.05,0,0,0-.07,9.09c1,3.88-.1,7.72-2,11.11a11.54,11.54,0,0,0,.2,12.07,13.26,13.26,0,0,1,1.37,9.46,7.9,7.9,0,0,0,2,7.22,8.17,8.17,0,0,1,1.93,8.52c-1.45,4.79-1.05,9.32,2.23,13.35,2.5,3.07,1.95,6.93,2.69,10.46.27,1.29.41,2.61.61,3.91-.94.13-1.07-.53-1.29-1-1.75-3.8-1.74-3.8-4.72-.93-.47-2,.28-3.71.38-5.45.12-2.27-.49-4-2.58-5-4-1.91-5.52-5.1-4.91-9.41a3.23,3.23,0,0,0-2.17-3.89c-1.68-.66-2.12-2.08-2.05-3.76a27.66,27.66,0,0,1,1.23-7.36,6.45,6.45,0,0,0-1.19-6.72,24.83,24.83,0,0,1-5.93-19,25,25,0,0,0-1.49-11.62c-2.8-7.1-.4-13.9,2.13-20.41,2-5.24,1.48-9.31-3-12.77a4.76,4.76,0,0,1-1.66-4.11q0-3.75-.18-7.49a1.59,1.59,0,0,0-1-1.63c-.92-.27-1.49.37-1.84,1a15.23,15.23,0,0,0-1.45,3.44c-1.47,6.25-3,12.39-1.56,19,.85,4-1.08,8.12-3.84,11.13-4.1,4.47-5.52,9.51-5.07,15.36a16.54,16.54,0,0,1-2.23,9.39,23,23,0,0,0-3,12.47c.09,1.73,0,3.47,0,5.2a2.07,2.07,0,0,1-1.48,2.22,2.19,2.19,0,0,1-2.23-1c-2-2.27-2.34-5.16-2.33-7.88,0-4-1.34-6.38-5.45-7.1-1.95-.34-2.6-2.13-2.35-3.8.7-4.84-.44-9.48-1.21-14.17a13.19,13.19,0,0,0-.95-3.9c-2.86-5.49-3.78-11.45-4.66-17.45-.13-.84-.24-2-.8-2.4-3.41-2.27-4.45-6.34-7.18-9.08a6.92,6.92,0,0,1-2.17-6.22,58.12,58.12,0,0,0,.22-8.35c0-1.26-.5-2.58-2-2.78a2.49,2.49,0,0,0-2.59,1.94c-2.65,7.39-6.11,14.7-3.6,22.86,1.31,4.27.43,8.37-.44,12.52-1.62,7.71-2,15.62-3.8,23.31a17.6,17.6,0,0,0,.2,7.18c.59,3-.23,5.37-2.59,7.71-4.34,4.29-6.73,9.42-4.94,15.9,1.38,5,1.49,10-1,14.88-1.47,2.87-1.76,6.26-2.44,9.46-.34,1.61-.77,4.15-2.55,4s-1.3-2.69-1.33-4.24c-.07-3.27,0-6.54.14-9.81a15.08,15.08,0,0,0-.93-7.07,6.35,6.35,0,0,1-.09-4.26,27.8,27.8,0,0,0-1-17.22c-2-5.45-2.3-11.41,1.93-16.12,6.82-7.61,7.33-16.37,5.65-25.7a35.81,35.81,0,0,1,1.61-19.84c2.6-6.65,4-13.66,5.67-20.56a25.1,25.1,0,0,0,.34-4c.29-3.67.88-7.23,3.46-10.12Z" transform="translate(-10.5 -263.41)"/><path class="cls-7" d="M516.5,384c-.26-2.78.3-5.48,2.66-7.41a6.92,6.92,0,0,0,2.58-6.6c-.36-3.58,1.51-6,4.5-7.7,1-.57,2.15-.93,3.24-.07s1,2.18.75,3.43a7.62,7.62,0,0,1-.55,1.33c-1.88,4-1.43,5.86,2,8.37,3.94,2.86,4.43,4.4,2.37,8.86a8.94,8.94,0,0,0-.16,7.5,24.1,24.1,0,0,1,1.33,4.09c.64,3-.6,4-3.48,4.51-3.69.66-6,.09-7.15-3.88a4.82,4.82,0,0,0-4.8-3.83c-1.46,0-2.23-1.4-2.6-2.76A19.58,19.58,0,0,1,516.5,384Zm11.07-20.18a8.64,8.64,0,0,0-1.41.83c-1.66,1.44-2.87,3.14-2.55,5.49a8.11,8.11,0,0,1-2.88,7.69c-2.61,2.35-3.22,8.81-1.46,11.87.29.52.66,1.05,1.28,1,3.92-.05,5.47,3.09,6.37,5.79,1.32,4,4,1.42,5.59,1.35,1.9-.09.82-2.44.3-3.51-2-4.08-2.35-8-.1-12.11,1.06-1.93.86-3.76-1.6-5-3.61-1.78-5.1-4.83-4.19-8.83a20.75,20.75,0,0,1,1.34-3.17C528.55,364.64,528.75,364,527.57,363.83Z" transform="translate(-10.5 -263.41)"/><path class="cls-3" d="M587.2,356.33,586,357c-3.43,1.79-4,4.65-3,8a6.48,6.48,0,0,1-1.22,6.2c-2.76,3.63-3.57,3.6-6-.05a35,35,0,0,0-3-3.43c-1.47-1.66-1.26-3.15.79-4.05a4.92,4.92,0,0,0,2.82-2.69C578.67,355,580.83,355,587.2,356.33ZM579.59,367c-.29-.76.17-2.1-1-2.25-.63-.08-1.57.89-1.52,1.73a2.31,2.31,0,0,0,1.69,2C579.68,368.64,579.49,367.62,579.59,367Z" transform="translate(-10.5 -263.41)"/><path class="cls-5" d="M570.39,394.46A21,21,0,0,1,568.06,407c-1.17,2.13-.5,4.54-.78,6.81-.22,1.72,0,4.36-2.42,4.19-2.81-.19-1.54-2.89-1.37-4.43a20.2,20.2,0,0,0-.14-6.85,7.24,7.24,0,0,1,0-3.43c1.16-4,1.4-7.88-.91-11.64-.65-1.06-.07-2.24.44-3.3a15.67,15.67,0,0,0,1.78-4.54c.26-1.95.41-4.15-1.62-5.11-3.56-1.7-3.41-4.48-2.82-7.56.52-2.73,1.86-5.36,1.43-8.19-1.07-7.1.88-14.11.55-21.18,0-1.15.27-2.22,1.53-2.41s1.86.91,2.08,1.95a11.64,11.64,0,0,1,.36,3.7c-.39,3.53,1.3,6.77,1.31,10.23a1.22,1.22,0,0,0,1,1.28c1.1.21,1.58-.59,1.91-1.39,1.53-3.82,4.14-6.87,6.79-9.94,1.67-1.93,3.26-2.8,5.69-1.29,2.15,1.33,4.57,1.23,7,.89,3.65-.49,5.37,1.75,3.93,5.1-.39.93-.73,1.84-.15,2.75a52.45,52.45,0,0,0,4,6c4.78,5.64,1.66,12.49-4.25,14.23-4.48,1.33-7.63,4.72-11.82,6.46-2.23.93-1.78,4.16.75,5.58a21.76,21.76,0,0,1,5.48,5,7.29,7.29,0,0,1,2,6.63,6.21,6.21,0,0,0,1.37,5.39A18.53,18.53,0,0,1,595,416.27a18.24,18.24,0,0,0,2.53,12.17,8.06,8.06,0,0,1,1.12,4.42c0,.87.06,1.82-1,2.16a2.33,2.33,0,0,1-2.39-.61,7.54,7.54,0,0,1-2.41-4.8,25.53,25.53,0,0,0-2.13-7.45,8.47,8.47,0,0,1-.66-4.5c.35-3.3-.37-6.29-3-8.64A18.87,18.87,0,0,1,584,405c-1.28-2-2.4-4.43-4.25-5.77-4.29-3.09-4.08-7.4-4.15-11.78a19.19,19.19,0,0,0-.11-2,2.25,2.25,0,0,0-1.66-2.14,2.28,2.28,0,0,0-2.62,1.32,8.07,8.07,0,0,0-1,4.71C570.2,391,570.3,392.74,570.39,394.46Zm12.93-40.89c-4-.62-6.58,1.54-8.18,5.29a5.44,5.44,0,0,1-2.68,3.18c-3.15,1.48-3.68,4.56-1.24,7a20.76,20.76,0,0,1,4,5.19c1.17,2.29,2.83,2.59,5,1.21a9.77,9.77,0,0,0,4.65-10.84c-.49-2.32-.52-4.3,1.79-5.78,1.28-.83,3.26-1.59,2.41-3.69-.76-1.87-2.68-1.5-4.29-1.56C584.42,353.55,584,353.57,583.32,353.57Z" transform="translate(-10.5 -263.41)"/><path class="cls-2" d="M509.55,396.67a18,18,0,0,0-2.93-13c-1.53-2.21-.88-4.88.91-7a11.4,11.4,0,0,0,2.83-6.47,11,11,0,0,1,6.29-9.05,8.62,8.62,0,0,0,3.43-3.37,46.33,46.33,0,0,1,3.3-4.37c5.57-6.83,12.21-5.52,18.07-1.06,6.41,4.89,8.56,15.39,5.07,22.69-2,4.17-1.85,7.55,1.25,11.34,4.88,6,4.39,9.41-.86,15.15-2.84,3.11-5,6.81-8.67,9.18-1.9,1.23-3.76,2.3-6.16,1.81-1.6-.33-3,.44-4.43,1-1.79.72-3.26.49-4-1.42-.6-1.52-1.75-2.07-3.18-2.59-3.08-1.13-5.69-3.5-9.37-3.07-1,.12-1.51-1.34-1.53-2.46C509.53,401.83,509.55,399.62,509.55,396.67ZM516.5,384a19.58,19.58,0,0,0,.71,5.84c.37,1.36,1.14,2.76,2.6,2.76a4.82,4.82,0,0,1,4.8,3.83c1.18,4,3.46,4.54,7.15,3.88,2.88-.52,4.12-1.52,3.48-4.51a24.1,24.1,0,0,0-1.33-4.09,8.94,8.94,0,0,1,.16-7.5c2.06-4.46,1.57-6-2.37-8.86-3.45-2.51-3.9-4.37-2-8.37a7.62,7.62,0,0,0,.55-1.33c.29-1.25.42-2.5-.75-3.43s-2.21-.5-3.24.07c-3,1.68-4.86,4.12-4.5,7.7a6.92,6.92,0,0,1-2.58,6.6C516.8,378.53,516.24,381.23,516.5,384Z" transform="translate(-10.5 -263.41)"/><path class="cls-3" d="M527.57,363.83c1.18.15,1,.81.69,1.47a20.75,20.75,0,0,0-1.34,3.17c-.91,4,.58,7,4.19,8.83,2.46,1.21,2.66,3,1.6,5-2.25,4.13-1.86,8,.1,12.11.52,1.07,1.6,3.42-.3,3.51-1.6.07-4.27,2.62-5.59-1.35-.9-2.7-2.45-5.84-6.37-5.79-.62,0-1-.52-1.28-1-1.76-3.06-1.15-9.52,1.46-11.87a8.11,8.11,0,0,0,2.88-7.69c-.32-2.35.89-4,2.55-5.49A8.64,8.64,0,0,1,527.57,363.83Zm-2,14.81a6.35,6.35,0,0,0-3,3.39c-.54,1.75-.76,3.63.91,5,2,1.64,2.83,1.3,3.5-1.14.33-1.2.89-2.33,1.29-3.5A3.1,3.1,0,0,0,525.6,378.64Z" transform="translate(-10.5 -263.41)"/></svg>